<svg xmlns="http://www.w3.org/2000/svg" width="108" height="108" viewBox="0 0 108 108" xmlns:xlink="http://www.w3.org/1999/xlink">
  <defs>
    <polygon id="a" points=".009 .156 .009 80 80 80 80 .156 .009 .156"/>
    <path id="c" d="M70.37875,12.876875 C69.9260938,13.1034375 69.5589063,13.4703125 69.3326563,13.923125 L68.305625,15.9767187 L67.27875,13.923125 C67.0484375,13.4626563 66.6729688,13.09125 66.2103125,12.8660938 L64.0826563,11.8303125 L66.1779688,10.8496875 C66.6551563,10.6264063 67.0429688,10.2484375 67.27875,9.7771875 L68.305625,7.72359375 L69.3326563,9.7771875 C69.5589063,10.2298438 69.9260938,10.596875 70.37875,10.8232813 L72.4321875,11.8501563 L70.37875,12.876875 Z M78.7090625,9.7578125 L73.1685938,6.9875 L70.3979688,1.44671875 C69.5364063,-0.27609375 67.0728125,-0.27203125 66.2134375,1.44671875 L63.4579688,6.95703125 L57.6614063,9.67 C55.8834375,10.5021875 55.863125,13.0321875 57.6290625,13.8920313 L63.4489063,16.7253125 L66.2134375,22.2535938 C67.0748438,23.9764063 69.5384375,23.9723438 70.3979688,22.2535938 L73.1685938,16.7128125 L78.7090625,13.9423438 C80.4320313,13.0810938 80.428125,10.6173437 78.7090625,9.7578125 L78.7090625,9.7578125 Z"/>
    <path id="d" d="M13.7670313,69.3326562 C13.3142188,69.5590625 12.9473438,69.9259375 12.7207813,70.37875 L11.6940625,72.4323438 L10.6670313,70.37875 C10.4407813,69.9259375 10.07375,69.5590625 9.6209375,69.3326562 L7.56734375,68.3057812 L9.6209375,67.2789063 C10.07375,67.0525 10.440625,66.685625 10.6670313,66.2328125 L11.6940625,64.1792188 L12.7207813,66.2328125 C12.9473438,66.685625 13.3142188,67.0525 13.7670313,67.2789063 L15.820625,68.3057812 L13.7670313,69.3326562 Z M22.0976563,66.2134375 L16.556875,63.443125 L13.7865625,57.9023437 C12.925,56.1795312 10.46125,56.1835937 9.60171875,57.9023437 L6.83125,63.443125 L1.290625,66.2134375 C-0.4321875,67.075 -0.428125,69.53875 1.290625,70.3982812 L6.83125,73.1685937 L9.60171875,78.709375 C10.4632813,80.4321875 12.9270313,80.428125 13.7865625,78.709375 L16.556875,73.1685937 L22.0976563,70.3982812 C23.8204688,69.5367187 23.8164063,67.0729688 22.0976563,66.2134375 L22.0976563,66.2134375 Z"/>
    <path id="e" d="M16.0082812,45.5409375 L25.3659375,41.5915625 L38.853125,54.7204687 L35.0542188,64.0821875 L16.0082812,45.5409375 Z M63.8640625,34.5779688 L54.5065625,38.4540625 L41.5457813,25.4932813 L45.421875,16.1359375 L63.8640625,34.5779688 Z M56.2971875,53.145 L56.2971875,42.7764063 L65.654375,38.9003125 L65.654375,62.5021875 L56.2971875,53.145 Z M43.184375,56.443125 L53.0109375,56.4440625 L62.3545313,65.8189063 C58.4985938,65.8248438 44.1626563,65.8467188 39.3846875,65.8540625 L43.184375,56.443125 Z M28.2253125,37.8454688 L28.2253125,28.3814063 L37.8173437,28.3814063 L51.6184375,42.1823438 L51.6184375,51.79875 L42.5729688,51.8121875 L28.2253125,37.8454688 Z M37.2234375,23.7026563 L26.8548438,23.7026563 L17.4976562,14.3454687 L41.0995312,14.3454687 L37.2234375,23.7026563 Z M14.189375,41.2301563 L14.189375,17.65375 L23.5465625,27.0109375 L23.5465625,37.2810938 L14.189375,41.2301563 Z M47.6254688,11.7226562 C46.2996875,10.396875 44.5373437,9.66671875 42.6634375,9.66671875 L16.5285937,9.66671875 C14.6367188,9.66671875 12.9185937,10.4204687 11.6551562,11.641875 C11.625625,11.66875 11.5948437,11.69375 11.5660937,11.7223437 C11.5376562,11.7509375 11.5126562,11.7815625 11.4857812,11.8110938 C10.264375,13.0745312 9.51046875,14.7928125 9.51046875,16.6846875 L9.51046875,42.7828125 C9.51046875,44.660625 10.2892187,46.5048438 11.6321875,47.8103125 L32.9301563,68.5440625 C34.2482813,69.8278125 35.9873438,70.5348438 37.8267188,70.5348438 C37.8292188,70.5348438 37.8307813,70.5348438 63.3257813,70.4960938 C67.1864063,70.4892188 70.3329688,67.3375 70.3329688,63.478125 L70.3329688,37.3365625 C70.3329688,35.4625 69.6026563,33.7001562 68.2770313,32.3745313 L47.6254688,11.7226562 L47.6254688,11.7226562 Z"/>
  </defs>
  <g fill="none" fill-rule="evenodd">
    <circle cx="54" cy="54" r="54" fill="#F2F2F2" opacity=".5"/>
    <g transform="translate(14 16)">
      <mask id="b" fill="white">
        <use xlink:href="#a"/>
      </mask>
      <g mask="url(#b)">
        <use fill="#D74B4B" xlink:href="#c"/>
        <path stroke="#F8F8F8" d="M70.6024549,13.3240395 C70.2462263,13.5023618 69.9576553,13.7909153 69.7798494,14.1467726 L68.305591,17.0946167 L67.8584182,16.2003392 L66.8315668,14.1467925 C66.6504763,13.7847345 66.355298,13.4927185 65.9914592,13.3156527 L62.9220798,11.8214237 L63.8707145,11.3774541 L65.9660634,10.3968121 C66.3411576,10.2213014 66.6461377,9.92413226 66.8315432,9.55356709 L68.305591,6.60569584 L68.7528182,7.49994612 L69.7799007,9.55364246 C69.9577093,9.90938236 70.2463733,10.1980144 70.602384,10.3760813 L73.5501534,11.8501903 L70.6024549,13.3240395 Z M78.4854507,10.2050236 L72.7959228,7.3601794 L69.9507714,1.67035799 C69.2742051,0.317470787 67.3364864,0.318654878 66.660641,1.67034584 L63.8274035,7.33617805 L57.8733652,10.1228503 C56.475879,10.776951 56.4603605,12.7668647 57.8479206,13.4424747 L63.8202521,16.3499917 L63.8961072,16.5016804 L66.6606511,22.029987 C67.3370785,23.3828417 69.2747969,23.3816576 69.9507627,22.0299718 L72.79592,16.3401387 L72.9449718,16.2656065 L78.4855044,13.4951058 C79.8385085,12.8187878 79.8373699,10.8809832 78.4854557,10.2050261 Z"/>
      </g>
      <g mask="url(#b)">
        <use fill="#D74B4B" xlink:href="#d"/>
        <path stroke="#F8F8F8" d="M13.9906517,69.779863 L13.990638,69.7798698 C13.6346006,69.9578886 13.346135,70.2463223 13.1680017,70.6023432 L11.6941305,73.5503097 L11.2468693,72.6559914 L10.2197559,70.6022333 C10.0419551,70.2463861 9.75348327,69.9579461 9.39731709,69.779863 L6.44937781,68.3057812 L7.34372334,67.8585745 L9.3973307,66.8316927 C9.7533795,66.6536683 10.0417933,66.3652545 10.2198381,66.0091649 L11.6941305,63.0612528 L12.1412829,63.9556256 L13.1679331,66.0090823 C13.346135,66.3652402 13.6346006,66.6536739 13.9906517,66.8316995 L16.9385909,68.3057812 L13.9906517,69.779863 Z M7.20392519,72.7959144 L10.0489161,78.4857358 C10.7254851,79.8386284 12.663388,79.8374443 13.3393464,78.4857732 L16.1841956,72.7959144 L16.3332732,72.7213776 L21.874017,69.9510839 C23.2269096,69.2745149 23.2257255,67.336612 21.8740169,66.6606348 L21.8740545,66.6606536 L16.1841956,63.8158044 L16.1096589,63.6667268 L13.3393651,58.125983 C12.6627961,56.7730904 10.7248933,56.7742745 10.0489298,58.1259556 L7.20392519,63.8158044 L7.0548568,63.8903386 L1.51426424,66.6606349 C0.161371614,67.3372039 0.162555734,69.2751067 1.5142318,69.9510677 L7.20392519,72.7959144 Z"/>
      </g>
      <g>
        <use fill="#0A0B09" xlink:href="#e"/>
        <path stroke="#F8F8F8" d="M15.1193779,45.3733898 L25.477061,41.001956 L39.4429057,54.5968042 L35.2380394,64.9589382 L15.1193779,45.3733898 Z M64.7467444,34.7535394 L54.389248,39.0438548 L40.9559874,25.6105942 L45.2463051,15.2532653 L64.7467444,34.7535394 Z M55.7971875,53.3521068 L55.7971875,42.4423242 L66.154375,38.1519934 L66.154375,63.7092943 L55.7971875,53.3521068 Z M42.8470481,55.9430928 L53.2185532,55.9440823 L63.556949,66.3170553 L62.3553012,66.3189057 C60.6846156,66.3214782 57.8969406,66.3257434 50.5719239,66.3369413 L50.5699682,66.3369443 C43.8905442,66.3471557 41.2960062,66.3511254 39.385456,66.3540619 L38.6431349,66.3552029 L42.8470481,55.9430928 Z M27.7253125,38.0565269 L27.7253125,27.8814063 L38.0244489,27.8814063 L52.1184375,41.9752353 L52.1184375,52.2980078 L42.3701015,52.3124894 L27.7253125,38.0565269 Z M37.5575196,24.2026563 L26.647737,24.2026563 L16.2905495,13.8454687 L41.8478504,13.8454687 L37.5575196,24.2026563 Z M13.689375,41.9838786 L13.689375,16.4466432 L24.0465625,26.8038307 L24.0465625,37.6127809 L13.689375,41.9838786 Z M47.2719154,12.0762096 C46.0399167,10.8442109 44.4047558,10.1667188 42.6634375,10.1667188 L16.5285937,10.1667188 C14.8191762,10.1667188 13.2123226,10.831956 11.9916874,12.0116679 C11.9704388,12.0307549 11.9704388,12.0307549 11.9535814,12.045491 L11.950179,12.0484658 C11.9270887,12.0687902 11.9270887,12.0687902 11.9206144,12.0749272 C11.9117618,12.0841634 11.9117618,12.0841634 11.8898187,12.10908 L11.8895873,12.1093441 C11.8747694,12.1262637 11.8747694,12.1262637 11.8452636,12.1586171 C10.6758192,13.3683046 10.0104687,14.9753238 10.0104687,16.6846875 L10.0104687,42.7828125 C10.0104687,44.5252416 10.7343486,46.2402398 11.9809635,47.4520454 L33.2790082,68.1858694 C34.5037714,69.3786923 36.1176622,70.0348438 37.8267188,70.0348438 C37.8277086,70.0348442 37.8277086,70.0348442 41.0161544,70.03 C47.3909198,70.0203124 47.3909198,70.0203124 63.3248909,69.9960945 C66.9096366,69.9897108 69.8329688,67.0617902 69.8329688,63.478125 L69.8329688,37.3365625 C69.8329688,35.5952307 69.1554213,33.9600281 67.9234752,32.728082 L47.2719127,12.076207 Z"/>
      </g>
    </g>
  </g>
</svg>
