<svg xmlns="http://www.w3.org/2000/svg" width="108" height="108" viewBox="0 0 108 108">
  <g fill="none" fill-rule="evenodd">
    <circle cx="54" cy="54" r="54" fill="#F2F2F2" opacity=".5"/>
    <g transform="translate(6 16)">
      <path fill="#313131" d="M61.6667188,76.6667188 C53.3951562,76.6667188 46.6667188,69.938125 46.6667188,61.6667188 C46.6667188,53.3951562 53.3951562,46.6667188 61.6667188,46.6667188 C69.938125,46.6667188 76.6667188,53.3951562 76.6667188,61.6667188 C76.6667188,69.938125 69.938125,76.6667188 61.6667188,76.6667188 Z M6.66671875,70 C4.8275,70 3.33328125,68.5042188 3.33328125,66.6667188 L3.33328125,26.6667187 L70,26.6667187 L70,45.3575 C67.4964063,44.0726563 64.6685937,43.3332812 61.6667188,43.3332812 C51.5592187,43.3332812 43.3332812,51.5576563 43.3332812,61.6667188 C43.3332812,64.6685937 44.0728125,67.4964063 45.3575,70 L6.66671875,70 Z M6.66671875,10 L20,10 L20,13.3332812 C18.1607812,13.3332812 16.6667188,14.8290625 16.6667188,16.6667187 C16.6667188,18.5042187 18.1607812,20 20,20 C21.8392188,20 23.3332812,18.5042187 23.3332812,16.6667187 L23.3332812,10 L53.3332812,10 L53.3332812,13.3332812 C51.4942187,13.3332812 50,14.8290625 50,16.6667187 C50,18.5042187 51.4942187,20 53.3332812,20 C55.1725,20 56.6667188,18.5042187 56.6667188,16.6667187 L56.6667188,10 L66.6667188,10 C68.5059375,10 70,11.4957812 70,13.3332812 L70,23.3332812 L3.33328125,23.3332812 L3.33328125,13.3332812 C3.33328125,11.4957812 4.8275,10 6.66671875,10 Z M73.3332812,47.53625 L73.3332812,13.3332812 C73.3332812,9.6565625 70.341875,6.66671875 66.6667188,6.66671875 L56.6667188,6.66671875 L56.6667188,1.66671875 C56.6667188,0.74546875 55.92125,0 55,0 C54.07875,0 53.3332813,0.74546875 53.3332813,1.66671875 L53.3332813,6.66671875 L23.3332812,6.66671875 L23.3332812,1.66671875 C23.3332812,0.74546875 22.5879688,0 21.6667188,0 C20.7454688,0 20,0.74546875 20,1.66671875 L20,6.66671875 L6.66671875,6.66671875 C2.9915625,6.66671875 0,9.6565625 0,13.3332812 L0,66.6667188 C0,70.3434375 2.9915625,73.3332812 6.66671875,73.3332812 L47.5359375,73.3332812 C50.901875,77.4025 55.986875,80 61.6667188,80 C71.7740625,80 80,71.7757812 80,61.6667188 C80,55.9864063 77.4021875,50.9015625 73.3332812,47.53625 L73.3332812,47.53625 Z"/>
      <path fill="#D74B4B" d="M63.3332813,60.9765625 L63.3332813,51.6667188 C63.3332813,50.7454688 62.5879688,50 61.6667188,50 C60.7454688,50 60,50.7454688 60,51.6667188 L60,61.6667188 C60,62.109375 60.1757812,62.5325 60.4882812,62.845 L65.4882812,67.845 C65.81375,68.170625 66.2403125,68.3332813 66.6667188,68.3332813 C67.093125,68.3332813 67.5195312,68.170625 67.845,67.845 C68.4960938,67.1940625 68.4960938,66.139375 67.845,65.4882812 L63.3332813,60.9765625"/>
    </g>
  </g>
</svg>
