<svg xmlns="http://www.w3.org/2000/svg" width="108" height="108" viewBox="0 0 108 108">
  <g fill="none" fill-rule="evenodd">
    <circle cx="54" cy="54" r="54" fill="#F2F2F2" opacity=".5"/>
    <path fill="#0A0B09" d="M14.3616433,14.0385772 C14.3616433,14.2167335 14.2168737,14.361503 14.038998,14.361503 L5.9196994,14.361503 L14.3616433,5.91941884 L14.3616433,14.0385772 Z M54.8255711,39.83 C53.8682966,39.83 53.091984,40.6061723 53.091984,41.5635872 L53.091984,68.0322846 C53.091984,68.211002 52.9473547,68.3564729 52.7696192,68.3564729 L3.79164329,68.3564729 C3.61292585,68.3564729 3.46745491,68.211002 3.46745491,68.0322846 L3.46745491,17.8286774 L14.038998,17.8286774 C16.1288978,17.8286774 17.8288176,16.128477 17.8288176,14.0385772 L17.8288176,3.46717435 L52.7696192,3.46717435 C52.9473547,3.46717435 53.091984,3.61264529 53.091984,3.79136273 L53.091984,9.26132265 C53.091984,10.2187375 53.8682966,10.9949098 54.8255711,10.9949098 C55.7828457,10.9949098 56.5591583,10.2187375 56.5591583,9.26132265 L56.5591583,3.79136273 C56.5591583,1.7009018 54.8593788,0 52.7696192,0 L16.0948096,0 C15.6351102,0 15.1942084,0.182785571 14.8690381,0.507815631 L0.507815631,14.8690381 C0.182785571,15.1940681 0,15.6351102 0,16.0948096 L0,68.0322846 C0,70.1227455 1.7009018,71.8236473 3.79136273,71.8236473 L52.769479,71.8236473 C54.8592385,71.8236473 56.559018,70.1227455 56.559018,68.0322846 L56.559018,41.5635872 C56.5591583,40.6063126 55.782986,39.83 54.8255711,39.83 L54.8255711,39.83 Z" transform="translate(17 23)"/>
    <path fill="#D74B4B" d="M29.5,54 L56.8786797,54 L56.8786797,54 C57.363961,54 57.7573593,54.3933983 57.7573593,54.8786797 C57.7573593,55.11172 57.6647844,55.3352156 57.5,55.5 L57.5,55.5 L57.5,55.5 C56.5395661,56.4604339 55.2369383,57 53.8786797,57 L29.5,57 L29.5,57 C28.6715729,57 28,56.3284271 28,55.5 L28,55.5 L28,55.5 C28,54.6715729 28.6715729,54 29.5,54 Z"/>
    <path fill="#0A0B09" d="M82.718497,42.9274148 L80.5341884,45.1117234 L75.1022445,39.6797796 L77.2865531,37.4954709 C78.2220842,36.5599399 79.7438477,36.5602204 80.6788176,37.4954709 L82.718497,39.5351503 C83.6538878,40.4705411 83.6538878,41.9923046 82.718497,42.9274148 Z M43.3480561,73.1849499 L47.029018,76.8660521 L41.9330461,78.2807816 L43.3480561,73.1849499 Z M50.3563327,75.2898597 L44.9245291,69.8580561 L72.6507014,42.1318838 L78.0826453,47.5635471 L50.3563327,75.2898597 Z M83.1306413,35.0439279 C80.843507,32.7567936 77.1221443,32.7570741 74.8347295,35.0439279 L58.642986,51.2356713 L55.1758116,54.702986 L44.7418838,65.1369138 L41.2745691,68.6040882 C41.0351102,68.8435471 40.8822044,69.106012 40.8022445,69.3941483 L38.1244289,79.038016 L39.442505,82.5053307 C39.4426453,82.5053307 39.8225251,82.4622645 39.8783567,82.4476754 C39.8874749,82.4452906 50.8198196,79.4118637 50.8198196,79.4118637 C51.1079559,79.3319038 51.3707014,79.1787174 51.5819639,78.9673146 L85.1704609,45.3792385 C87.4573146,43.0921042 87.4573146,39.3707415 85.1704609,37.0836072 L83.1306413,35.0439279 Z"/>
  </g>
</svg>
