<svg xmlns="http://www.w3.org/2000/svg" width="157" height="19" viewBox="0 0 157 19">
  <g fill="#FFFFFF" fill-rule="evenodd" transform="translate(0 -1)">
    <path fill-rule="nonzero" d="M22.745098,6.30606488 C22.5359477,6.30606488 22.3529412,6.3596615 22.1699346,6.44005642 L19.0849673,3.00987306 C19.1895425,2.82228491 19.2418301,2.60789845 19.2418301,2.36671368 C19.2418301,1.61636107 18.6405229,1 17.9084967,1 C17.3071895,1 16.7843137,1.40197461 16.627451,1.99153738 L13.3333333,1.99153738 C13.1764706,1.42877292 12.6535948,1 12.0522876,1 C11.4509804,1 10.9281046,1.40197461 10.7712418,1.99153738 L7.52941176,1.99153738 C7.37254902,1.42877292 6.8496732,1 6.24836601,1 C5.51633987,1 4.91503268,1.61636107 4.91503268,2.36671368 C4.91503268,2.58110014 4.96732026,2.7954866 5.04575163,2.98307475 L1.90849673,6.44005642 C1.7254902,6.3596615 1.54248366,6.30606488 1.33333333,6.30606488 C0.60130719,6.30606488 0,6.92242595 0,7.67277856 C0,8.42313117 0.60130719,9.03949224 1.33333333,9.03949224 C1.54248366,9.03949224 1.75163399,8.98589563 1.93464052,8.8787024 L5.01960784,12.0409027 C4.94117647,12.2284908 4.88888889,12.416079 4.88888889,12.6572638 C4.88888889,13.4076164 5.49019608,14.0239774 6.22222222,14.0239774 C6.43137255,14.0239774 6.64052288,13.9703808 6.79738562,13.8899859 L10.8235294,18.0437236 C10.745098,18.2313117 10.6928105,18.4188999 10.6928105,18.6332863 C10.6928105,19.3836389 11.2941176,20 12.0261438,20 C12.7581699,20 13.3594771,19.3836389 13.3594771,18.6332863 C13.3594771,18.4188999 13.3071895,18.2313117 13.2287582,18.0437236 L17.254902,13.8899859 C17.4379085,13.9971791 17.6470588,14.0507757 17.8562092,14.0507757 C18.5882353,14.0507757 19.1895425,13.4344147 19.1895425,12.6840621 C19.1895425,12.4428773 19.1372549,12.2284908 19.0326797,12.0409027 L22.0653595,8.90550071 C22.248366,9.01269394 22.4575163,9.06629055 22.6666667,9.06629055 C23.3986928,9.06629055 24,8.44992948 24,7.69957687 C24,6.94922426 23.503268,6.30606488 22.745098,6.30606488 M6.64052288,11.3441467 C6.50980392,11.3173484 6.37908497,11.2905501 6.24836601,11.2905501 C5.9869281,11.2905501 5.75163399,11.370945 5.54248366,11.5049365 L2.50980392,8.36953456 C2.64052288,8.1551481 2.69281046,7.91396333 2.69281046,7.67277856 C2.69281046,7.40479549 2.61437908,7.13681241 2.48366013,6.92242595 L5.54248366,3.54583921 C5.75163399,3.67983075 5.9869281,3.76022567 6.24836601,3.76022567 C6.87581699,3.76022567 7.37254902,3.33145275 7.52941176,2.74188999 L10.7712418,2.74188999 C10.8496732,2.98307475 10.9542484,3.19746121 11.1372549,3.35825106 L6.64052288,11.3441467 M12.7581699,17.4809591 C12.5490196,17.3469676 12.3137255,17.2665726 12.0522876,17.2665726 C11.7908497,17.2665726 11.5555556,17.3469676 11.3464052,17.4809591 L7.37254902,13.3808181 C7.45098039,13.2736248 7.50326797,13.1396333 7.52941176,13.0056417 L16.6013072,13.0056417 C16.627451,13.1396333 16.6797386,13.2468265 16.7581699,13.3540197 L12.7581699,17.4809591 M16.627451,12.2284908 L7.50326797,12.2284908 C7.45098039,12.0409027 7.34640523,11.9069111 7.24183007,11.7461213 L11.7647059,3.70662906 C11.8431373,3.73342736 11.9477124,3.73342736 12.0261438,3.73342736 C12.1045752,3.73342736 12.2091503,3.73342736 12.2875817,3.70662906 L16.8366013,11.7997179 C16.7581699,11.9337094 16.6797386,12.067701 16.627451,12.2284908 M21.5947712,8.36953456 L18.5882353,11.4781382 C18.379085,11.370945 18.1699346,11.2905501 17.9084967,11.2905501 C17.751634,11.2905501 17.620915,11.3173484 17.4901961,11.370945 L12.9673203,3.35825106 C13.1503268,3.19746121 13.2810458,2.98307475 13.3333333,2.74188999 L16.627451,2.74188999 C16.7843137,3.33145275 17.3071895,3.76022567 17.9084967,3.76022567 C18.1437908,3.76022567 18.379085,3.67983075 18.5882353,3.57263752 L21.6470588,6.94922426 C21.5163399,7.16361072 21.4379085,7.43159379 21.4379085,7.69957687 C21.4117647,7.91396333 21.4901961,8.1551481 21.5947712,8.36953456"/>
    <text font-family="Roboto-Bold, Roboto" font-size="16" font-weight="bold">
      <tspan x="44.305" y="15">GraphQL-Ruby</tspan>
    </text>
  </g>
</svg>
