<svg xmlns="http://www.w3.org/2000/svg" width="558" height="240" viewBox="0 0 558 240" xmlns:xlink="http://www.w3.org/1999/xlink">
  <defs>
    <path id="a" d="M0.00945945859,5.52930223 C0.0114205923,5.57297994 0.0145713284,5.61766993 0.0189189189,5.66337838 C0.0676351351,6.21013514 0.320202703,6.73040541 0.767635135,7.22135135 C1.21695946,7.71560811 1.71925676,8.02540541 2.29391892,8.15689189 C2.85959459,8.28506757 3.28952703,8.21506757 3.57331081,7.95209459 L6.08101351,6.38797297 L6.08101351,20.3619595 C6.08101351,20.7573649 6.29858108,21.1163514 6.73939189,21.4493243 C7.16932432,21.7832432 7.72081081,21.9492568 8.3825,21.9492568 C9.04418919,21.9492568 9.61554054,21.7832432 10.0946622,21.4493243 C10.5761486,21.1163514 10.8173649,20.7573649 10.8173649,20.3619595 L10.8173649,1.57452703 C10.8173649,1.11858108 10.5818243,0.750608108 10.1178378,0.467297297 C9.65337838,0.177837838 9.07587838,0.0373648649 8.3825,0.0373648649 C7.69148649,0.0373648649 7.13716216,0.177837838 6.71337838,0.467297297 L0.37222973,4.44216216 C0.150819101,4.64955012 0.0278739996,4.94072014 0.00945945278,5.32083875 L0.00945945946,5.52930225 L0.00945945859,5.52930223 Z"/>
    <path id="c" d="M4.88155405,15.4780405 C4.88155405,16.4367568 5.14594595,17.1589865 5.6822973,17.6556081 C6.21628378,18.1498649 6.91912162,18.3981757 7.78087838,18.3981757 C8.90986486,18.3981757 9.98918919,17.9190541 11.0131757,16.9598649 C12.0409459,15.9983108 12.5517568,14.9847297 12.5517568,13.9030405 L12.5517568,12.2429054 L11.4369595,12.2429054 C10.0993919,12.2429054 9.00540541,12.3010811 8.15783784,12.4216892 C7.31027027,12.5408784 6.55304054,12.8568243 5.88236486,13.3647973 C5.21547297,13.8737162 4.88155405,14.5812838 4.88155405,15.4780405 Z M0.150878378,16.0626351 C0.150878378,13.6632432 1.0447973,11.9945946 2.82695946,11.0533784 C4.61432432,10.1064865 7.20054054,9.63635135 10.5898649,9.63635135 L12.5517568,9.63635135 L12.5517568,8.80533784 C12.5517568,7.455 12.1889865,6.29243243 11.4606081,5.31006757 C10.7322297,4.32817568 9.62641892,3.83959459 8.1375,3.83959459 C6.85810811,3.83959459 5.73148649,4.08506757 4.76851351,4.57932432 C3.79939189,5.07310811 3.27391892,5.32189189 3.18358108,5.32189189 C2.67891892,5.32189189 2.2697973,5.07310811 1.95574324,4.57932432 C1.64263514,4.08506757 1.48844595,3.53878378 1.48844595,2.93952703 C1.48844595,2.16195946 2.20878378,1.48702703 3.65418919,0.917094595 C5.09344595,0.346689189 6.6202027,0.0633783784 8.225,0.0633783784 C11.2893919,0.0633783784 13.5558784,0.893445946 15.0301351,2.55689189 C16.5015541,4.2227027 17.2417568,6.29527027 17.2417568,8.78216216 L17.2417568,20.0583108 C17.2417568,20.4825676 17.0241892,20.8472297 16.5914189,21.1660135 C16.1614865,21.4753378 15.6161486,21.6337838 14.962973,21.6337838 C14.3651351,21.6337838 13.8633108,21.4753378 13.4485135,21.1660135 C13.0308784,20.8472297 12.8213514,20.4825676 12.8213514,20.0583108 L12.8213514,18.4856757 C10.8277703,20.824527 8.58445946,21.9932432 6.08574324,21.9932432 C4.35939189,21.9932432 2.93716216,21.4847973 1.82283784,20.4622297 C0.708513514,19.4477027 0.150878378,17.9772297 0.150878378,16.0626351 Z"/>
    <path id="e" d="M0.0151351351,13.0493243 L0.0151351351,9.00445946 C0.0151351351,6.33878378 0.786554054,4.18486486 2.33648649,2.53655405 C3.88027027,0.888243243 6.18459459,0.0633783784 9.24898649,0.0633783784 C11.182027,0.0633783784 12.8043243,0.399662162 14.1130405,1.07459459 C15.4217568,1.74716216 16.0777703,2.50675676 16.0777703,3.34297297 C16.0777703,3.85472973 15.8890541,4.3627027 15.5206081,4.87162162 C15.1464865,5.38006757 14.7080405,5.63736486 14.2033784,5.63736486 C14.0548649,5.63736486 13.5265541,5.40939189 12.6184459,4.96243243 C11.7131757,4.51452703 10.7090541,4.2875 9.60939189,4.2875 C6.33547297,4.2875 4.69898649,5.86581081 4.69898649,9.01912162 L4.69898649,13.0408108 C4.69898649,16.1941216 6.34966216,17.7724324 9.65290541,17.7724324 C10.7818919,17.7724324 11.7968919,17.5302703 12.7083108,17.0511486 C13.6140541,16.5710811 14.1565541,16.3289189 14.3395946,16.3289189 C14.9312838,16.3289189 15.4160811,16.5710811 15.7878378,17.0511486 C16.1591216,17.5302703 16.3416892,18.0415541 16.3416892,18.5764865 C16.3416892,19.4155405 15.6596622,20.1964189 14.2904054,20.912027 C12.9235135,21.6337838 11.2577027,21.9932432 9.29581081,21.9932432 C6.19878378,21.9932432 3.88027027,21.1783108 2.33648649,19.5408784 C0.786554054,17.9100676 0.0151351351,15.7438514 0.0151351351,13.0493243 Z"/>
    <path id="g" d="M0.388783784,32.8285811 L0.388783784,1.96141892 C0.388783784,1.51067568 0.594527027,1.14554054 1.01310811,0.86222973 C1.43074324,0.575608108 1.97655405,0.43277027 2.66425676,0.43277027 C3.34581081,0.43277027 3.92047297,0.575608108 4.37925676,0.86222973 C4.84371622,1.14554054 5.0697973,1.51067568 5.0697973,1.96141892 L5.0697973,21.9558784 L14.3972973,13.3279054 C14.664527,13.0587838 14.9922973,12.9211486 15.3782432,12.9211486 C15.8833784,12.9211486 16.3908784,13.1642568 16.8960135,13.6433784 C17.4035135,14.1225 17.6537162,14.6309459 17.6537162,15.172027 C17.6537162,15.5608108 17.5198649,15.8914189 17.2526351,16.1595946 L11.4951351,21.3277703 L18.5036486,31.4810811 C18.6805405,31.7502027 18.7708784,32.0221622 18.7708784,32.2908108 C18.7708784,32.8285811 18.4719595,33.3635135 17.8764865,33.8866216 C17.2819595,34.4068919 16.7016216,34.6731757 16.135473,34.6731757 C15.6303378,34.6731757 15.2155405,34.4480405 14.8882432,34.0001351 L8.32858108,24.2502703 L5.0697973,27.2139189 L5.0697973,32.8285811 C5.0697973,33.2202027 4.83189189,33.5768243 4.35608108,33.9097973 C3.88310811,34.2399324 3.3197973,34.4040541 2.66425676,34.4040541 C2.00824324,34.4040541 1.46574324,34.2399324 1.03581081,33.9097973 C0.603986486,33.5768243 0.388783784,33.2202027 0.388783784,32.8285811 Z"/>
    <path id="i" d="M4.85554054,9.22959459 L12.2637162,9.22959459 C12.9168919,9.22959459 13.3553378,9.14209459 13.5785811,8.96662162 C13.8056081,8.78831081 13.9125,8.43168919 13.9125,7.90243243 C13.9125,6.72472973 13.4830405,5.7225 12.6212838,4.89763514 C11.7562162,4.07087838 10.6882432,3.65844595 9.40837838,3.65844595 C8.15783784,3.65844595 7.08702703,4.05054054 6.19594595,4.83094595 C5.30486486,5.61418919 4.85554054,6.60743243 4.85554054,7.81209459 L4.85554054,9.22959459 Z M0.171216216,13.0493243 L0.171216216,8.78216216 C0.171216216,6.41493243 1.07932432,4.37168919 2.89317568,2.64722973 C4.70986486,0.925608108 6.895,0.0633783784 9.45236486,0.0633783784 C11.8895946,0.0633783784 13.9796622,0.844256757 15.7202027,2.40175676 C17.4621622,3.95972973 18.3324324,5.92398649 18.3324324,8.30304054 C18.3324324,9.22060811 18.2279054,9.96033784 18.0188514,10.5245946 C17.8131081,11.0912162 17.4825,11.4828378 17.0383784,11.7141216 C16.5914189,11.9449324 16.1733108,12.0882432 15.7873649,12.1525676 C15.3985811,12.2074324 14.8962838,12.2429054 14.2695946,12.2429054 L4.85554054,12.2429054 L4.85554054,13.2834459 C4.85554054,14.7912838 5.39236486,15.9897973 6.4627027,16.8841892 C7.53351351,17.7724324 8.93256757,18.2175 10.6593919,18.2175 C11.8782432,18.2175 13.0275676,17.9304054 14.1130405,17.3581081 C15.2008784,16.7853378 15.8625676,16.4982432 16.0981081,16.4982432 C16.6056081,16.4982432 17.0383784,16.7380405 17.3926351,17.2171622 C17.7516216,17.6972297 17.9289865,18.164527 17.9289865,18.6147973 C17.9289865,19.3564189 17.2124324,20.1022973 15.7873649,20.8618919 C14.3622973,21.6134459 12.6037838,21.9932432 10.5231757,21.9932432 C7.49047297,21.9932432 5.00641892,21.1688514 3.07337838,19.5205405 C1.14033784,17.8693919 0.171216216,15.715473 0.171216216,13.0493243 Z"/>
    <path id="k" d="M0.365608108,20.0583108 L0.365608108,1.86067568 C0.365608108,1.41087838 0.580337838,1.04574324 1.01310811,0.762432432 C1.44209459,0.475810811 1.98554054,0.3325 2.64722973,0.3325 C3.23608108,0.3325 3.74358108,0.475810811 4.15837838,0.76527027 C4.57695946,1.05425676 4.7827027,1.42554054 4.7827027,1.87864865 L4.7827027,3.87790541 C5.28736486,2.81986486 6.05689189,1.9197973 7.08371622,1.17722973 C8.10864865,0.434662162 9.22864865,0.0633783784 10.4475,0.0633783784 L11.8810811,0.0633783784 C12.354527,0.0633783784 12.7688514,0.268175676 13.1259459,0.677297297 C13.4830405,1.08641892 13.6632432,1.57736486 13.6632432,2.15344595 C13.6632432,2.72621622 13.4830405,3.22898649 13.1259459,3.64993243 C12.7688514,4.07655405 12.354527,4.2875 11.8810811,4.2875 L10.4475,4.2875 C9.02527027,4.2875 7.76574324,4.90094595 6.68027027,6.12547297 C5.59243243,7.35 5.04945946,8.93445946 5.04945946,10.8745946 L5.04945946,20.0644595 C5.04945946,20.4527703 4.81202703,20.8122297 4.33574324,21.139527 C3.86324324,21.4696622 3.29662162,21.6337838 2.64722973,21.6337838 C1.98554054,21.6337838 1.44209459,21.4696622 1.01310811,21.139527 C0.580337838,20.8065541 0.365608108,20.4499324 0.365608108,20.0583108 Z"/>
    <path id="m" d="M3.21432432,13.3941216 C3.21432432,14.9142568 3.75445946,16.2645946 4.83993243,17.4394595 C5.92540541,18.6181081 7.22844595,19.2045946 8.74621622,19.2045946 C10.290473,19.2045946 11.6138514,18.6181081 12.7158784,17.4394595 C13.8160135,16.2645946 14.367027,14.9142568 14.367027,13.3941216 L14.367027,8.52817568 C14.367027,7.06385135 13.8103378,5.75418919 12.6927027,4.59114865 C11.5760135,3.43047297 10.2639865,2.84918919 8.74621622,2.84918919 C7.22844595,2.84918919 5.92540541,3.43047297 4.83993243,4.59114865 C3.75445946,5.75418919 3.21432432,7.06385135 3.21432432,8.52817568 L3.21432432,13.3941216 Z M0.312635135,13.4087838 L0.312635135,8.51351351 C0.312635135,6.23614865 1.14554054,4.26668919 2.80851351,2.60371622 C4.47716216,0.94027027 6.45608108,0.107364865 8.74621622,0.107364865 C11.0325676,0.107364865 13.0294595,0.931756757 14.7245946,2.58290541 C16.4197297,4.22837838 17.2663514,6.20493243 17.2663514,8.51351351 L17.2663514,13.4087838 C17.2663514,15.6539865 16.4135811,17.6381081 14.7037838,19.3658784 C12.9944595,21.087027 11.0065541,21.9468919 8.74621622,21.9468919 C6.51425676,21.9468919 4.55,21.087027 2.85486486,19.3658784 C1.15972973,17.6381081 0.312635135,15.6539865 0.312635135,13.4087838 Z"/>
    <path id="o" d="M0.0108783784,20.4622297 L0.0108783784,1.45486486 C0.0108783784,1.12709459 0.144256757,0.866959459 0.411486486,0.671621622 C0.678716216,0.475810811 1.02067568,0.376013514 1.43831081,0.376013514 C1.79587838,0.376013514 2.10898649,0.484324324 2.37621622,0.697635135 C2.64344595,0.910945946 2.77635135,1.16824324 2.77635135,1.47189189 L2.77635135,3.56810811 C3.28432432,2.59472973 4.05621622,1.77885135 5.09817568,1.11290541 C6.13682432,0.443648649 7.35898649,0.107364865 8.75472973,0.107364865 C10.8996622,0.107364865 12.757027,0.931756757 14.3325,2.58290541 C15.9084459,4.22837838 16.6983108,6.20493243 16.6983108,8.51351351 L16.6983108,20.4622297 C16.6983108,20.824527 16.5493243,21.1106757 16.2508784,21.315 C15.9519595,21.5259459 15.609527,21.6337838 15.2235811,21.6337838 C14.8664865,21.6337838 14.5415541,21.5259459 14.245473,21.315 C13.9437162,21.1106757 13.7985135,20.8268919 13.7985135,20.4679054 L13.7985135,8.54283784 C13.7985135,7.07804054 13.247027,5.76033784 12.1473649,4.59682432 C11.0448649,3.43331081 9.73567568,2.84918919 8.22074324,2.84918919 C6.82216216,2.84918919 5.58912162,3.37560811 4.51783784,4.41851351 C3.44655405,5.4652027 2.91304054,6.84155405 2.91304054,8.54283784 L2.91304054,20.4679054 C2.91304054,20.7658784 2.75885135,21.035 2.46324324,21.2738514 C2.16716216,21.5141216 1.82472973,21.6337838 1.43831081,21.6337838 C1.02067568,21.6337838 0.678716216,21.5141216 0.411486486,21.2738514 C0.144256757,21.035 0.0108783784,20.7658784 0.0108783784,20.4622297 Z"/>
    <path id="q" d="M3.08993243,9.72337838 L12.0135135,9.72337838 C12.9074324,9.72337838 13.4991216,9.62972973 13.7985135,9.43391892 C14.0945946,9.24425676 14.2426351,8.82898649 14.2426351,8.20655405 C14.2426351,6.71858108 13.7166892,5.40939189 12.6577027,4.27851351 C11.6043919,3.14385135 10.272027,2.58290541 8.6677027,2.58290541 C7.12108108,2.58290541 5.80290541,3.115 4.71743243,4.1877027 C3.63243243,5.25756757 3.08993243,6.54074324 3.08993243,8.02824324 L3.08993243,9.72337838 Z M0.191081081,13.4087838 L0.191081081,8.37871622 C0.191081081,6.12831081 1.02635135,4.19054054 2.68648649,2.55689189 C4.35513514,0.925608108 6.36054054,0.107364865 8.71121622,0.107364865 C10.9748649,0.107364865 12.9277703,0.890608108 14.5817568,2.44527027 C16.2300676,4.00939189 17.0577703,5.95945946 17.0577703,8.29736486 C17.0577703,9.13310811 16.9589189,9.8052027 16.7678378,10.3136486 C16.5701351,10.8225676 16.2593919,11.1758784 15.8266216,11.3891892 C15.3976351,11.5996622 15.0027027,11.7344595 14.6484459,11.7931081 C14.2894595,11.8541216 13.7985135,11.8834459 13.1746622,11.8834459 L3.08993243,11.8834459 L3.08993243,13.5435811 C3.08993243,15.3148649 3.7222973,16.7290541 4.98466216,17.7904054 C6.25317568,18.8545946 7.88067568,19.3890541 9.87472973,19.3890541 C10.8821622,19.3890541 11.7694595,19.2405405 12.5276351,18.9364189 C13.2848649,18.6408108 13.8652027,18.3366892 14.2658108,18.0391892 C14.6692568,17.7374324 14.9856757,17.5889189 15.2259459,17.5889189 C15.5537162,17.5889189 15.8441216,17.7468919 16.0938514,18.059527 C16.3492568,18.374527 16.4774324,18.6847973 16.4774324,18.9799324 C16.4774324,19.6141892 15.8356081,20.2631081 14.5557432,20.9380405 C13.2787162,21.6072973 11.6857432,21.9468919 9.78202703,21.9468919 C6.95837838,21.9468919 4.65121622,21.1660135 2.86952703,19.5881757 C1.08216216,18.0155405 0.191081081,15.9552703 0.191081081,13.4087838 Z"/>
  </defs>
  <g fill="none" fill-rule="evenodd">
    <path fill="#000000" fill-rule="nonzero" d="M335.173359,110.673359 L335.173359,193.673359 C335.173359,194.777928 336.068789,195.673359 337.173359,195.673359 C338.277928,195.673359 339.173359,194.777928 339.173359,193.673359 L339.173359,110.673359 C339.173359,109.568789 338.277928,108.673359 337.173359,108.673359 C336.068789,108.673359 335.173359,109.568789 335.173359,110.673359 Z" opacity=".1" transform="rotate(-45 337.173 152.173)"/>
    <path fill="#000000" fill-rule="nonzero" d="M225.173359,110.673359 L225.173359,193.673359 C225.173359,194.777928 226.068789,195.673359 227.173359,195.673359 C228.277928,195.673359 229.173359,194.777928 229.173359,193.673359 L229.173359,110.673359 C229.173359,109.568789 228.277928,108.673359 227.173359,108.673359 C226.068789,108.673359 225.173359,109.568789 225.173359,110.673359 Z" opacity=".1" transform="scale(-1 1) rotate(-45 0 700.618)"/>
    <path stroke="#000000" stroke-width="4" d="M276.768817 87L418.439946 87M139.768817 87L281.439946 87" opacity=".05" stroke-linecap="round"/>
    <g fill-rule="nonzero" transform="translate(189)">
      <path fill="#D74B4B" d="M89.9144499,170 C138.648633,135.165814 163.021549,103.289831 174.476082,78.9908619 C187.868178,50.5828495 176.219501,15.3740609 147.004618,3.56056041 C112.6682,-10.3151857 89.9144499,21.7075493 89.9144499,21.7075493 C89.9144499,21.7075493 67.3470788,-10.4078709 33.0067778,3.48718463 C3.78024617,15.2968233 -7.86843124,50.5094737 5.52366489,78.9136242 C16.9898464,103.216455 41.195798,135.165814 89.9144499,170 Z"/>
      <path fill="#FFFFFF" d="M129.398693,69.4432559 C128.631808,69.4432559 127.960784,69.6396524 127.28976,69.9342472 L115.978214,57.3648697 C116.361656,56.6774818 116.553377,55.8918957 116.553377,55.0081114 C116.553377,52.25856 114.348584,50 111.664488,50 C109.459695,50 107.542484,51.4729739 106.96732,53.6333357 L94.8888889,53.6333357 C94.3137255,51.5711722 92.3965142,50 90.1917211,50 C87.9869281,50 86.0697168,51.4729739 85.4945534,53.6333357 L73.6078431,53.6333357 C73.0326797,51.5711722 71.1154684,50 68.9106754,50 C66.2265795,50 64.0217865,52.25856 64.0217865,55.0081114 C64.0217865,55.7936975 64.2135076,56.5792836 64.5010893,57.2666714 L52.9978214,69.9342472 C52.3267974,69.6396524 51.6557734,69.4432559 50.8888889,69.4432559 C48.204793,69.4432559 46,71.7018159 46,74.4513672 C46,77.2009186 48.204793,79.4594786 50.8888889,79.4594786 C51.6557734,79.4594786 52.422658,79.2630821 53.0936819,78.870289 L64.4052288,90.457684 C64.1176471,91.1450718 63.9259259,91.8324596 63.9259259,92.716244 C63.9259259,95.4657953 66.130719,97.7243553 68.8148148,97.7243553 C69.5816993,97.7243553 70.3485839,97.5279588 70.9237473,97.233364 L85.6862745,112.454095 C85.3986928,113.141482 85.2069717,113.82887 85.2069717,114.614456 C85.2069717,117.364008 87.4117647,119.622568 90.0958606,119.622568 C92.7799564,119.622568 94.9847495,117.364008 94.9847495,114.614456 C94.9847495,113.82887 94.7930283,113.141482 94.5054466,112.454095 L109.267974,97.233364 C109.938998,97.6261571 110.705882,97.8225536 111.472767,97.8225536 C114.156863,97.8225536 116.361656,95.5639936 116.361656,92.8144422 C116.361656,91.9306579 116.169935,91.1450718 115.786492,90.457684 L126.906318,78.9684873 C127.577342,79.3612803 128.344227,79.5576769 129.111111,79.5576769 C131.795207,79.5576769 134,77.2991168 134,74.5495655 C134,71.8000142 132.178649,69.4432559 129.398693,69.4432559 M70.3485839,87.9045291 C69.869281,87.8063309 69.3899782,87.7081326 68.9106754,87.7081326 C67.9520697,87.7081326 67.0893246,88.0027274 66.3224401,88.4937187 L55.2026144,77.0045221 C55.6819172,76.218936 55.8736383,75.3351516 55.8736383,74.4513672 C55.8736383,73.4693846 55.5860566,72.487402 55.1067538,71.7018159 L66.3224401,59.3288349 C67.0893246,59.8198262 67.9520697,60.114421 68.9106754,60.114421 C71.211329,60.114421 73.0326797,58.5432488 73.6078431,56.382887 L85.4945534,56.382887 C85.7821351,57.2666714 86.1655773,58.0522575 86.8366013,58.6414471 L70.3485839,87.9045291 M92.7799564,110.391931 C92.0130719,109.90094 91.1503268,109.606345 90.1917211,109.606345 C89.2331155,109.606345 88.3703704,109.90094 87.6034858,110.391931 L73.0326797,95.3675971 C73.3202614,94.974804 73.5119826,94.4838127 73.6078431,93.9928214 L106.87146,93.9928214 C106.96732,94.4838127 107.159041,94.8766057 107.446623,95.2693988 L92.7799564,110.391931 M106.96732,91.1450718 L73.5119826,91.1450718 C73.3202614,90.457684 72.9368192,89.9666926 72.5533769,89.3775031 L89.1372549,59.9180245 C89.4248366,60.0162227 89.8082789,60.0162227 90.0958606,60.0162227 C90.3834423,60.0162227 90.7668845,60.0162227 91.0544662,59.9180245 L107.734205,89.5738996 C107.446623,90.0648909 107.159041,90.5558822 106.96732,91.1450718 M125.180828,77.0045221 L114.156863,88.3955204 C113.389978,88.0027274 112.623094,87.7081326 111.664488,87.7081326 C111.089325,87.7081326 110.610022,87.8063309 110.130719,88.0027274 L93.546841,58.6414471 C94.2178649,58.0522575 94.6971678,57.2666714 94.8888889,56.382887 L106.96732,56.382887 C107.542484,58.5432488 109.459695,60.114421 111.664488,60.114421 C112.527233,60.114421 113.389978,59.8198262 114.156863,59.4270332 L125.372549,71.8000142 C124.893246,72.5856003 124.605664,73.5675829 124.605664,74.5495655 C124.509804,75.3351516 124.797386,76.218936 125.180828,77.0045221"/>
    </g>
    <g fill-rule="nonzero" transform="translate(0 73)">
      <rect width="9.699" height="30.48" fill="#33CCFF"/>
      <rect width="9.699" height="8.313" x="13.855" y="22.167" fill="#33CCFF"/>
      <rect width="9.699" height="2.771" x="13.855" y="9.698" fill="#33CCFF"/>
      <rect width="9.699" height="9.698" x="13.855" fill="#000000"/>
      <rect width="12.47" height="9.698" x="23.554" fill="#FF4400"/>
      <rect width="9.699" height="20.782" x="45.723" y="9.698" fill="#33CCFF"/>
      <rect width="9.699" height="9.698" x="45.723" fill="#000000"/>
      <rect width="6.928" height="9.698" x="38.795" fill="#FF4400"/>
      <rect width="6.928" height="9.698" x="55.422" fill="#FF4400"/>
      <rect width="9.699" height="20.782" x="72.048" y="9.698" fill="#33CCFF"/>
      <rect width="9.699" height="9.698" x="72.048" fill="#000000"/>
      <rect width="6.928" height="9.698" x="65.12" fill="#FF4400"/>
      <rect width="6.928" height="9.698" x="81.747" fill="#FF4400"/>
      <rect width="9.699" height="20.782" x="98.373" y="9.698" fill="#33CCFF"/>
      <rect width="9.699" height="9.698" x="98.373" fill="#000000"/>
      <rect width="6.928" height="9.698" x="91.446" fill="#FF4400"/>
      <rect width="6.928" height="9.698" x="108.072" fill="#FF4400"/>
      <rect width="9.699" height="9.698" x="13.855" y="12.469" fill="#000000"/>
      <rect width="8.313" height="9.698" x="23.554" y="12.469" fill="#FF4400"/>
    </g>
    <g fill="#11110F" fill-rule="nonzero" transform="translate(443 69)">
      <path d="M22.326837 13.3387293L12.7116298 13.3387293C12.4635221 13.3387293 12.2624309 13.5398204 12.2624309 13.7882459L12.2624309 18.489268C12.2624309 18.737058 12.4635221 18.9391022 12.7116298 18.9391022L16.4624724 18.9391022 16.4624724 24.7796409C16.4624724 24.7796409 15.6203039 25.0668232 13.2917127 25.0668232 10.5447376 25.0668232 6.70716851 24.0632735 6.70716851 15.6244337 6.70716851 7.18400552 10.7032597 6.07339779 14.4547376 6.07339779 17.7023757 6.07339779 19.1011188 6.64490331 19.9915746 6.92064917 20.2714503 7.00610497 20.5300414 6.72781768 20.5300414 6.47939227L21.6025276 1.93752762C21.6025276 1.82125691 21.5631354 1.68116022 21.4309807 1.58649171 21.0694613 1.32853591 18.8638122.0943508287 13.2917127.0943508287 6.87299724.0943508287.288453039 2.82512431.288453039 15.9535497.288453039 29.0819751 7.82698895 31.0382459 14.1796271 31.0382459 19.4394475 31.0382459 22.630221 28.790663 22.630221 28.790663 22.7617403 28.7179144 22.7760359 28.5342956 22.7760359 28.4501105L22.7760359 13.7882459C22.7760359 13.5398204 22.5749448 13.3387293 22.326837 13.3387293M71.8797652 1.66718232C71.8797652 1.41716851 71.6815331 1.21544199 71.4331077 1.21544199L66.0192127 1.21544199C65.772058 1.21544199 65.5709669 1.41716851 65.5709669 1.66718232 65.5709669 1.66845304 65.5725552 12.1299586 65.5725552 12.1299586L57.1333978 12.1299586 57.1333978 1.66718232C57.1333978 1.41716851 56.9345304 1.21544199 56.6867403 1.21544199L51.273163 1.21544199C51.0269613 1.21544199 50.8258702 1.41716851 50.8258702 1.66718232L50.8258702 29.9972099C50.8258702 30.2472238 51.0269613 30.4505387 51.273163 30.4505387L56.6867403 30.4505387C56.9345304 30.4505387 57.1333978 30.2472238 57.1333978 29.9972099L57.1333978 17.8796409 65.5725552 17.8796409C65.5725552 17.8796409 65.5576243 29.9962569 65.5576243 29.9972099 65.5576243 30.2472238 65.7583978 30.4505387 66.0061878 30.4505387L71.4327901 30.4505387C71.6808978 30.4505387 71.8791298 30.2472238 71.8797652 29.9972099L71.8797652 1.66718232M32.5430939 5.38498619C32.5430939 3.43538674 30.9804282 1.86001381 29.0521133 1.86001381 27.1257044 1.86001381 25.5614503 3.43538674 25.5614503 5.38498619 25.5614503 7.33236188 27.1257044 8.91186464 29.0521133 8.91186464 30.9804282 8.91186464 32.5430939 7.33236188 32.5430939 5.38498619M32.1561602 24.0213398C32.1561602 23.2951243 32.1561602 10.9440608 32.1561602 10.9440608 32.1561602 10.6956354 31.9557044 10.4926381 31.708232 10.4926381L26.311174 10.4926381C26.0637017 10.4926381 25.842279 10.7480525 25.842279 10.9964779 25.842279 10.9964779 25.842279 26.7324171 25.842279 29.7319475 25.842279 30.2824862 26.1853729 30.4464088 26.6291713 30.4464088 26.6291713 30.4464088 28.9329834 30.4464088 31.4915746 30.4464088 32.0252762 30.4464088 32.1561602 30.1843232 32.1561602 29.7230525 32.1561602 28.7188674 32.1561602 24.7847238 32.1561602 24.0213398M92.4549171 10.5355249L87.0826381 10.5355249C86.8364365 10.5355249 86.635663 10.7385221 86.635663 10.9882182L86.635663 24.8793923C86.635663 24.8793923 85.2705939 25.8778591 83.333384 25.8778591 81.3964917 25.8778591 80.8824862 24.9988398 80.8824862 23.1022928 80.8824862 21.2032044 80.8824862 10.9882182 80.8824862 10.9882182 80.8824862 10.7385221 80.6823481 10.5355249 80.435511 10.5355249L74.9828591 10.5355249C74.7369751 10.5355249 74.5352486 10.7385221 74.5352486 10.9882182 74.5352486 10.9882182 74.5352486 18.3857044 74.5352486 24.0194337 74.5352486 29.6534807 77.6751934 31.0318923 81.9946823 31.0318923 85.5387155 31.0318923 88.3959254 29.0740331 88.3959254 29.0740331 88.3959254 29.0740331 88.5318923 30.1058564 88.5935221 30.228163 88.6548343 30.3501519 88.8152624 30.4734116 88.9887155 30.4734116L92.4574586 30.4578453C92.7033425 30.4578453 92.9050691 30.2545304 92.9050691 30.0057873L92.903163 10.9882182C92.903163 10.7385221 92.7027072 10.5355249 92.4549171 10.5355249M105.019779 25.8607044C103.156271 25.8041575 101.892224 24.9584945 101.892224 24.9584945L101.892224 15.9869061C101.892224 15.9869061 103.139116 15.2225691 104.669061 15.0859669 106.603729 14.9128315 108.467873 15.4970442 108.467873 20.1122928 108.467873 24.978826 107.626657 25.939489 105.019779 25.8607044zM107.138702 9.89889503C104.08739 9.89889503 102.011989 11.2604696 102.011989 11.2604696L102.011989 1.66718232C102.011989 1.41716851 101.811851 1.21544199 101.565331 1.21544199L96.1358702 1.21544199C95.8890331 1.21544199 95.6885773 1.41716851 95.6885773 1.66718232L95.6885773 29.9972099C95.6885773 30.2472238 95.8890331 30.4505387 96.1365055 30.4505387 96.1371409 30.4505387 99.902279 30.4505387 99.9035497 30.4505387 100.073191 30.4505387 100.201533 30.3631768 100.296519 30.2100552 100.390235 30.0578867 100.525249 28.9037569 100.525249 28.9037569 100.525249 28.9037569 102.745193 31.0074309 106.947776 31.0074309 111.881975 31.0074309 114.711547 28.5047514 114.711547 19.7726934 114.711547 11.04 110.192238 9.89889503 107.138702 9.89889503L107.138702 9.89889503zM47.716105 10.4900967L43.6548895 10.4900967C43.6548895 10.4900967 43.6488536 5.12607735 43.6488536 5.12512431 43.6488536 4.92180939 43.5440193 4.82046961 43.3092541 4.82046961L37.7752762 4.82046961C37.5598895 4.82046961 37.4445718 4.91513812 37.4445718 5.12194751L37.4445718 10.6660912C37.4445718 10.6660912 34.6712293 11.3357597 34.4834807 11.3897652 34.2970028 11.4437707 34.1594475 11.615953 34.1594475 11.8214917L34.1594475 15.3054834C34.1594475 15.5561326 34.3595856 15.7581768 34.607058 15.7581768L37.4445718 15.7581768C37.4445718 15.7581768 37.4445718 19.402279 37.4445718 24.1398343 37.4445718 30.3654006 41.811395 30.9769337 44.7578729 30.9769337 46.1045166 30.9769337 47.7151519 30.5445718 47.9810497 30.4464088 48.1417956 30.3873204 48.2351934 30.2205387 48.2351934 30.0400967L48.2399586 26.2076105C48.2399586 25.9575967 48.0287017 25.7552348 47.7910773 25.7552348 47.5540884 25.7552348 46.9489088 25.8514917 46.3256215 25.8514917 44.3305939 25.8514917 43.6548895 24.9238674 43.6548895 23.7233564 43.6548895 22.5237983 43.6545718 15.7581768 43.6545718 15.7581768L47.716105 15.7581768C47.9635773 15.7581768 48.1640331 15.5561326 48.1640331 15.3054834L48.1640331 10.9415193C48.1640331 10.6915055 47.9635773 10.4900967 47.716105 10.4900967"/>
    </g>
    <g fill="#03363D" fill-rule="nonzero" transform="translate(380 212)">
      <path d="M86.25,21.75 C88.3928571,21.75 89.9285714,20.8571429 90.8571429,19.9642857 L93.1428571,22.4285714 C91.6428571,24 89.5357143,25.1428571 86.25,25.1428571 C80.6428571,25.1428571 77.0357143,21.4285714 77.0357143,16.3928571 C77.0357143,11.3928571 80.8571429,7.64285714 85.75,7.64285714 C91.3214286,7.64285714 94.4642857,11.8571429 94.1785714,17.75 L81.0714286,17.75 C81.5357143,20.2142857 83.25,21.75 86.25,21.75 L86.25,21.75 Z M90.25,14.9642857 C89.8928571,12.6785714 88.5357143,11 85.8214286,11 C83.2857143,11 81.5357143,12.4285714 81.0714286,14.9642857 L90.25,14.9642857 Z"/>
      <polygon points="0 21.571 10.107 11.286 .25 11.286 .25 8.071 14.786 8.071 14.786 11.357 4.679 21.643 14.929 21.643 14.929 24.857 0 24.857"/>
      <path d="M26.2857143 21.75C28.4285714 21.75 29.9642857 20.8571429 30.8928571 19.9642857L33.1785714 22.4285714C31.6785714 24 29.5714286 25.1428571 26.2857143 25.1428571 20.6785714 25.1428571 17.0714286 21.4285714 17.0714286 16.3928571 17.0714286 11.3928571 20.8928571 7.64285714 25.7857143 7.64285714 31.3571429 7.64285714 34.5 11.8571429 34.2142857 17.75L21.1071429 17.75C21.5714286 20.2142857 23.2857143 21.75 26.2857143 21.75L26.2857143 21.75zM30.2857143 14.9642857C29.9285714 12.6785714 28.5714286 11 25.8571429 11 23.3214286 11 21.5714286 12.4285714 21.1071429 14.9642857L30.2857143 14.9642857zM56.0714286 16.4285714C56.0714286 11.0714286 60.0714286 7.71428571 64.5 7.71428571 66.7142857 7.71428571 68.8571429 8.67857143 70.1071429 10.25L70.1071429.357142857 73.6785714.357142857 73.6785714 24.8571429 70.1071429 24.8571429 70.1071429 22.5C68.8214286 24.1428571 66.7142857 25.1428571 64.4642857 25.1428571 60.1785714 25.1428571 56.0714286 21.75 56.0714286 16.4285714M70.2857143 16.3928571C70.2857143 13.3928571 68.0357143 10.9642857 64.9642857 10.9642857 61.9642857 10.9642857 59.6428571 13.3571429 59.6428571 16.3928571 59.6428571 19.4285714 61.9642857 21.8571429 64.9642857 21.8571429 68.0357143 21.8571429 70.2857143 19.3928571 70.2857143 16.3928571M96.5357143 21.25L99.7857143 19.5714286C100.714286 21.1071429 102.178571 22.0357143 104.107143 22.0357143 106.142857 22.0357143 107.178571 21 107.178571 19.8214286 107.178571 18.4642857 105.214286 18.1785714 103.107143 17.75 100.25 17.1428571 97.2857143 16.2142857 97.2857143 12.75 97.2857143 10.1071429 99.8214286 7.64285714 103.785714 7.67857143 106.928571 7.67857143 109.25 8.92857143 110.571429 10.9285714L107.571429 12.5714286C106.785714 11.3928571 105.5 10.6428571 103.785714 10.6428571 101.857143 10.6428571 100.892857 11.5714286 100.892857 12.6428571 100.892857 13.8571429 102.428571 14.1785714 104.857143 14.7142857 107.607143 15.3214286 110.75 16.2142857 110.75 19.7142857 110.75 22.0357143 108.714286 25.1428571 103.928571 25.1071429 100.428571 25.1428571 97.9642857 23.75 96.5357143 21.25"/>
      <polygon points="120.429 17.357 117.607 20.464 117.607 24.821 114.036 24.821 114.036 .321 117.607 .321 117.607 16.357 125.179 8.036 129.536 8.036 122.964 15.214 129.714 24.821 125.643 24.821"/>
      <path d="M45.2857143,7.67857143 C41.0357143,7.67857143 37.5,10.4285714 37.5,15 L37.5,24.8214286 L41.1428571,24.8214286 L41.1428571,15.4642857 C41.1428571,12.7142857 42.7142857,11.0714286 45.4285714,11.0714286 C48.1428571,11.0714286 49.4642857,12.7142857 49.4642857,15.4642857 L49.4642857,24.8214286 L53.1071429,24.8214286 L53.1071429,15 C53.0714286,10.4285714 49.5357143,7.67857143 45.2857143,7.67857143"/>
    </g>
    <g transform="translate(24 205)">
      <polygon fill="#090908" points=".028 34.773 4.739 34.773 4.739 .378 .028 .378"/>
      <g transform="translate(7.568 12.77)">
        <mask id="b" fill="white">
          <use xlink:href="#a"/>
        </mask>
        <polygon fill="#090908" points=".009 22.003 10.85 22.003 10.85 -.019 .009 -.019" mask="url(#b)"/>
      </g>
      <g transform="translate(21.757 12.77)">
        <mask id="d" fill="white">
          <use xlink:href="#c"/>
        </mask>
        <polygon fill="#090908" points=".123 22.003 17.264 22.003 17.264 .038 .123 .038" mask="url(#d)"/>
      </g>
      <g transform="translate(43.04 12.77)">
        <mask id="f" fill="white">
          <use xlink:href="#e"/>
        </mask>
        <polygon fill="#090908" points=".009 22.003 16.355 22.003 16.355 .038 .009 .038" mask="url(#f)"/>
      </g>
      <g transform="translate(62.432)">
        <mask id="h" fill="white">
          <use xlink:href="#g"/>
        </mask>
        <polygon fill="#090908" points=".369 34.716 18.815 34.716 18.815 .378 .369 .378" mask="url(#h)"/>
      </g>
      <g transform="translate(82.77 12.77)">
        <mask id="j" fill="white">
          <use xlink:href="#i"/>
        </mask>
        <polygon fill="#090908" points=".123 22.003 18.342 22.003 18.342 .038 .123 .038" mask="url(#j)"/>
      </g>
      <g transform="translate(104.527 12.77)">
        <mask id="l" fill="white">
          <use xlink:href="#k"/>
        </mask>
        <polygon fill="#090908" points=".331 21.662 13.669 21.662 13.669 .038 .331 .038" mask="url(#l)"/>
      </g>
      <g transform="translate(119.19 12.77)">
        <mask id="n" fill="white">
          <use xlink:href="#m"/>
        </mask>
        <polygon fill="#090908" points=".312 22.003 17.282 22.003 17.282 .095 .312 .095" mask="url(#n)"/>
      </g>
      <g transform="translate(140 12.77)">
        <mask id="p" fill="white">
          <use xlink:href="#o"/>
        </mask>
        <polygon fill="#090908" points="-.009 21.662 16.734 21.662 16.734 .095 -.009 .095" mask="url(#p)"/>
      </g>
      <g transform="translate(159.865 12.77)">
        <mask id="r" fill="white">
          <use xlink:href="#q"/>
        </mask>
        <polygon fill="#090908" points=".161 22.003 17.074 22.003 17.074 .095 .161 .095" mask="url(#r)"/>
      </g>
    </g>
  </g>
</svg>
