<svg xmlns="http://www.w3.org/2000/svg" width="1203" height="521" viewBox="0 0 1203 521">
  <g fill="#FFFFFF" transform="translate(-6 -1)" opacity=".3">
    <path d="M1125.67669,481.427981 C1125.37168,481.427981 1125.1048,481.501324 1124.83791,481.611338 L1120.339,476.917403 C1120.49151,476.660703 1120.56776,476.367332 1120.56776,476.03729 C1120.56776,475.010492 1119.69085,474.16705 1118.62331,474.16705 C1117.74641,474.16705 1116.98388,474.717121 1116.75512,475.523891 L1111.9512,475.523891 C1111.72244,474.753792 1110.95991,474.16705 1110.08301,474.16705 C1109.2061,474.16705 1108.44358,474.717121 1108.21482,475.523891 L1103.48715,475.523891 C1103.25839,474.753792 1102.49586,474.16705 1101.61896,474.16705 C1100.55142,474.16705 1099.67451,475.010492 1099.67451,476.03729 C1099.67451,476.330661 1099.75076,476.624032 1099.86514,476.880732 L1095.28998,481.611338 C1095.0231,481.501324 1094.75621,481.427981 1094.4512,481.427981 C1093.38366,481.427981 1092.50676,482.271423 1092.50676,483.298221 C1092.50676,484.325019 1093.38366,485.168461 1094.4512,485.168461 C1094.75621,485.168461 1095.06122,485.095118 1095.32811,484.948433 L1099.82702,489.275654 C1099.71264,489.532354 1099.63639,489.789053 1099.63639,490.119096 C1099.63639,491.145894 1100.51329,491.989335 1101.58083,491.989335 C1101.88584,491.989335 1102.19085,491.915993 1102.41961,491.805978 L1108.29107,497.490041 C1108.17669,497.74674 1108.10044,498.00344 1108.10044,498.296811 C1108.10044,499.323609 1108.97734,500.16705 1110.04488,500.16705 C1111.11242,500.16705 1111.98933,499.323609 1111.98933,498.296811 C1111.98933,498.00344 1111.91307,497.74674 1111.79869,497.490041 L1117.67015,491.805978 C1117.93704,491.952664 1118.24205,492.026007 1118.54706,492.026007 C1119.6146,492.026007 1120.49151,491.182565 1120.49151,490.155767 C1120.49151,489.825725 1120.41525,489.532354 1120.26275,489.275654 L1124.68541,484.985104 C1124.95229,485.131789 1125.2573,485.205132 1125.56231,485.205132 C1126.62985,485.205132 1127.50676,484.361691 1127.50676,483.334892 C1127.50676,482.308094 1126.78235,481.427981 1125.67669,481.427981 M1102.19085,488.322199 C1102.00022,488.285527 1101.80959,488.248856 1101.61896,488.248856 C1101.23769,488.248856 1100.89456,488.35887 1100.58954,488.542227 L1096.16689,484.251677 C1096.35752,483.958306 1096.43377,483.628263 1096.43377,483.298221 C1096.43377,482.931507 1096.31939,482.564794 1096.12876,482.271423 L1100.58954,477.65083 C1100.89456,477.834187 1101.23769,477.944201 1101.61896,477.944201 C1102.53399,477.944201 1103.25839,477.357459 1103.48715,476.550689 L1108.21482,476.550689 C1108.3292,476.880732 1108.4817,477.174103 1108.74859,477.394131 L1102.19085,488.322199 M1111.11242,496.719942 C1110.80741,496.536585 1110.46427,496.426571 1110.08301,496.426571 C1109.70174,496.426571 1109.35861,496.536585 1109.0536,496.719942 L1103.25839,491.109222 C1103.37277,490.962537 1103.44902,490.77918 1103.48715,490.595823 L1116.717,490.595823 C1116.75512,490.77918 1116.83137,490.925866 1116.94575,491.072551 L1111.11242,496.719942 M1116.75512,489.532354 L1103.44902,489.532354 C1103.37277,489.275654 1103.22026,489.092297 1103.06776,488.872269 L1109.66362,477.870859 C1109.778,477.90753 1109.9305,477.90753 1110.04488,477.90753 C1110.15926,477.90753 1110.31177,477.90753 1110.42615,477.870859 L1117.06013,488.945612 C1116.94575,489.128969 1116.83137,489.312325 1116.75512,489.532354 M1123.99913,484.251677 L1119.6146,488.505555 C1119.30959,488.35887 1119.00458,488.248856 1118.62331,488.248856 C1118.39456,488.248856 1118.20392,488.285527 1118.01329,488.35887 L1111.41743,477.394131 C1111.68432,477.174103 1111.87495,476.880732 1111.9512,476.550689 L1116.75512,476.550689 C1116.98388,477.357459 1117.74641,477.944201 1118.62331,477.944201 C1118.96645,477.944201 1119.30959,477.834187 1119.6146,477.687502 L1124.07538,482.308094 C1123.88475,482.601465 1123.77037,482.968179 1123.77037,483.334892 C1123.73225,483.628263 1123.84663,483.958306 1123.99913,484.251677" transform="scale(1 -1) rotate(17 4369.718 0)"/>
    <path d="M1210.139,302.864293 C1209.65098,302.864293 1209.22396,302.98277 1208.79695,303.160485 L1201.59869,295.577974 C1201.8427,295.163306 1201.9647,294.689399 1201.9647,294.156254 C1201.9647,292.49758 1200.56165,291.135097 1198.85359,291.135097 C1197.45054,291.135097 1196.2305,292.023673 1195.86449,293.326917 L1188.17821,293.326917 C1187.8122,292.082911 1186.59215,291.135097 1185.1891,291.135097 C1183.78605,291.135097 1182.56601,292.023673 1182.2,293.326917 L1174.63573,293.326917 C1174.26971,292.082911 1173.04967,291.135097 1171.64662,291.135097 C1169.93856,291.135097 1168.53551,292.49758 1168.53551,294.156254 C1168.53551,294.630161 1168.65751,295.104068 1168.84052,295.518736 L1161.52026,303.160485 C1161.09324,302.98277 1160.66623,302.864293 1160.17821,302.864293 C1158.47015,302.864293 1157.0671,304.226776 1157.0671,305.88545 C1157.0671,307.544124 1158.47015,308.906606 1160.17821,308.906606 C1160.66623,308.906606 1161.15425,308.78813 1161.58126,308.551176 L1168.77952,315.541303 C1168.59651,315.955972 1168.47451,316.37064 1168.47451,316.903785 C1168.47451,318.56246 1169.87756,319.924942 1171.58562,319.924942 C1172.07364,319.924942 1172.56165,319.806465 1172.92767,319.62875 L1182.322,328.810697 C1182.139,329.225365 1182.01699,329.640034 1182.01699,330.113941 C1182.01699,331.772615 1183.42004,333.135097 1185.1281,333.135097 C1186.83616,333.135097 1188.23921,331.772615 1188.23921,330.113941 C1188.23921,329.640034 1188.11721,329.225365 1187.9342,328.810697 L1197.32854,319.62875 C1197.75555,319.865704 1198.24357,319.98418 1198.73159,319.98418 C1200.43965,319.98418 1201.8427,318.621698 1201.8427,316.963024 C1201.8427,316.429879 1201.7207,315.955972 1201.47669,315.541303 L1208.55294,308.610414 C1208.97995,308.847368 1209.46797,308.965845 1209.95599,308.965845 C1211.66405,308.965845 1213.0671,307.603362 1213.0671,305.944688 C1213.0671,304.286014 1211.90806,302.864293 1210.139,302.864293 M1172.56165,314.001106 C1172.25664,313.941867 1171.95163,313.882629 1171.64662,313.882629 C1171.0366,313.882629 1170.48758,314.060344 1169.99956,314.356536 L1162.92331,307.425647 C1163.22832,306.95174 1163.35032,306.418595 1163.35032,305.88545 C1163.35032,305.293066 1163.16732,304.700682 1162.86231,304.226776 L1169.99956,296.762742 C1170.48758,297.058934 1171.0366,297.236649 1171.64662,297.236649 C1173.11067,297.236649 1174.26971,296.288835 1174.63573,294.985591 L1182.2,294.985591 C1182.383,295.518736 1182.62701,295.992643 1183.05403,296.348073 L1172.56165,314.001106 M1186.83616,327.566691 C1186.34815,327.270499 1185.79913,327.092784 1185.1891,327.092784 C1184.57908,327.092784 1184.03006,327.270499 1183.54205,327.566691 L1174.26971,318.503221 C1174.45272,318.266268 1174.57473,317.970076 1174.63573,317.673884 L1195.80348,317.673884 C1195.86449,317.970076 1195.98649,318.207029 1196.1695,318.443983 L1186.83616,327.566691 M1195.86449,315.955972 L1174.57473,315.955972 C1174.45272,315.541303 1174.20871,315.245111 1173.9647,314.889681 L1184.51808,297.118172 C1184.70109,297.17741 1184.9451,297.17741 1185.1281,297.17741 C1185.31111,297.17741 1185.55512,297.17741 1185.73812,297.118172 L1196.3525,315.008158 C1196.1695,315.30435 1195.98649,315.600541 1195.86449,315.955972 M1207.4549,307.425647 L1200.43965,314.297297 C1199.95163,314.060344 1199.46361,313.882629 1198.85359,313.882629 C1198.48758,313.882629 1198.18257,313.941867 1197.87756,314.060344 L1187.32418,296.348073 C1187.7512,295.992643 1188.05621,295.518736 1188.17821,294.985591 L1195.86449,294.985591 C1196.2305,296.288835 1197.45054,297.236649 1198.85359,297.236649 C1199.40261,297.236649 1199.95163,297.058934 1200.43965,296.82198 L1207.5769,304.286014 C1207.27189,304.759921 1207.08889,305.352304 1207.08889,305.944688 C1207.02788,306.418595 1207.21089,306.95174 1207.4549,307.425647" transform="rotate(-22 1185.067 312.135)"/>
    <path d="M878.19951,27.2331669 C877.737636,27.2331669 877.333497,27.3460019 876.929357,27.5152544 L870.116721,20.2938157 C870.347658,19.8988933 870.463127,19.4475534 870.463127,18.939796 C870.463127,17.3601063 869.13524,16.062504 867.518682,16.062504 C866.190795,16.062504 865.036111,16.9087664 864.689706,18.1499511 L857.415196,18.1499511 C857.068791,16.9651838 855.914107,16.062504 854.58622,16.062504 C853.258334,16.062504 852.103649,16.9087664 851.757244,18.1499511 L844.598203,18.1499511 C844.251798,16.9651838 843.097113,16.062504 841.769227,16.062504 C840.152669,16.062504 838.824782,17.3601063 838.824782,18.939796 C838.824782,19.3911359 838.940251,19.8424758 839.113453,20.2373982 L832.185349,27.5152544 C831.781209,27.3460019 831.37707,27.2331669 830.915196,27.2331669 C829.298639,27.2331669 827.970752,28.5307692 827.970752,30.1104589 C827.970752,31.6901486 829.298639,32.9877508 830.915196,32.9877508 C831.37707,32.9877508 831.838944,32.8749159 832.243083,32.6492459 L839.055719,39.3065097 C838.882517,39.7014321 838.767048,40.0963545 838.767048,40.6041119 C838.767048,42.1838016 840.094935,43.4814039 841.711493,43.4814039 C842.173366,43.4814039 842.63524,43.3685689 842.981645,43.1993164 L851.872713,51.9440273 C851.69951,52.3389497 851.584042,52.7338721 851.584042,53.1852121 C851.584042,54.7649018 852.911928,56.062504 854.528486,56.062504 C856.145044,56.062504 857.47293,54.7649018 857.47293,53.1852121 C857.47293,52.7338721 857.357462,52.3389497 857.184259,51.9440273 L866.075327,43.1993164 C866.479466,43.4249864 866.94134,43.5378214 867.403214,43.5378214 C869.019771,43.5378214 870.347658,42.2402191 870.347658,40.6605294 C870.347658,40.152772 870.23219,39.7014321 870.001253,39.3065097 L876.698421,32.7056634 C877.10256,32.9313334 877.564434,33.0441683 878.026307,33.0441683 C879.642865,33.0441683 880.970752,31.7465661 880.970752,30.1668764 C880.970752,28.5871867 879.873802,27.2331669 878.19951,27.2331669 M842.63524,37.8396549 C842.346569,37.7832374 842.057898,37.72682 841.769227,37.72682 C841.191885,37.72682 840.672277,37.8960724 840.210403,38.1781599 L833.513235,31.5773136 C833.801907,31.1259737 833.917375,30.6182163 833.917375,30.1104589 C833.917375,29.546284 833.744172,28.9821091 833.455501,28.5307692 L840.210403,21.4221655 C840.672277,21.704253 841.191885,21.8735054 841.769227,21.8735054 C843.154848,21.8735054 844.251798,20.9708256 844.598203,19.7296408 L851.757244,19.7296408 C851.930447,20.2373982 852.161384,20.6887381 852.565523,21.0272431 L842.63524,37.8396549 M856.145044,50.75926 C855.68317,50.4771726 855.163562,50.3079201 854.58622,50.3079201 C854.008878,50.3079201 853.48927,50.4771726 853.027397,50.75926 L844.251798,42.1273841 C844.425,41.9017142 844.540469,41.6196267 844.598203,41.3375393 L864.631972,41.3375393 C864.689706,41.6196267 864.805174,41.8452967 864.978377,42.0709666 L856.145044,50.75926 M864.689706,39.7014321 L844.540469,39.7014321 C844.425,39.3065097 844.194063,39.0244222 843.963127,38.6859173 L853.951144,21.7606704 C854.124347,21.8170879 854.355283,21.8170879 854.528486,21.8170879 C854.701689,21.8170879 854.932625,21.8170879 855.105828,21.7606704 L865.15158,38.7987523 C864.978377,39.0808397 864.805174,39.3629271 864.689706,39.7014321 M875.659205,31.5773136 L869.019771,38.1217424 C868.557898,37.8960724 868.096024,37.72682 867.518682,37.72682 C867.172277,37.72682 866.883606,37.7832374 866.594935,37.8960724 L856.606917,21.0272431 C857.011057,20.6887381 857.299728,20.2373982 857.415196,19.7296408 L864.689706,19.7296408 C865.036111,20.9708256 866.190795,21.8735054 867.518682,21.8735054 C868.03829,21.8735054 868.557898,21.704253 869.019771,21.478583 L875.774673,28.5871867 C875.486002,29.0385266 875.3128,29.6027015 875.3128,30.1668764 C875.255066,30.6182163 875.428268,31.1259737 875.659205,31.5773136" transform="scale(1 -1) rotate(-68 801.006 0)"/>
    <path d="M684.569515,475.970505 C684.098927,475.970505 683.687163,476.086161 683.275398,476.259645 L676.334221,468.85767 C676.569515,468.452875 676.687163,467.990251 676.687163,467.4698 C676.687163,465.850618 675.334221,464.520576 673.687163,464.520576 C672.334221,464.520576 671.157751,465.387995 670.80481,466.660209 L663.393045,466.660209 C663.040104,465.445823 661.863633,464.520576 660.510692,464.520576 C659.157751,464.520576 657.98128,465.387995 657.628339,466.660209 L650.334221,466.660209 C649.98128,465.445823 648.80481,464.520576 647.451868,464.520576 C645.80481,464.520576 644.451868,465.850618 644.451868,467.4698 C644.451868,467.932423 644.569515,468.395047 644.745986,468.799842 L637.687163,476.259645 C637.275398,476.086161 636.863633,475.970505 636.393045,475.970505 C634.745986,475.970505 633.393045,477.300548 633.393045,478.91973 C633.393045,480.538911 634.745986,481.868954 636.393045,481.868954 C636.863633,481.868954 637.334221,481.753298 637.745986,481.521986 L644.687163,488.345682 C644.510692,488.750477 644.393045,489.155273 644.393045,489.675724 C644.393045,491.294906 645.745986,492.624948 647.393045,492.624948 C647.863633,492.624948 648.334221,492.509292 648.687163,492.335809 L657.745986,501.299137 C657.569515,501.703933 657.451868,502.108728 657.451868,502.571352 C657.451868,504.190533 658.80481,505.520576 660.451868,505.520576 C662.098927,505.520576 663.451868,504.190533 663.451868,502.571352 C663.451868,502.108728 663.334221,501.703933 663.157751,501.299137 L672.216574,492.335809 C672.628339,492.56712 673.098927,492.682776 673.569515,492.682776 C675.216574,492.682776 676.569515,491.352734 676.569515,489.733552 C676.569515,489.2131 676.451868,488.750477 676.216574,488.345682 L683.040104,481.579814 C683.451868,481.811126 683.922457,481.926782 684.393045,481.926782 C686.040104,481.926782 687.393045,480.596739 687.393045,478.977557 C687.393045,477.358376 686.275398,475.970505 684.569515,475.970505 M648.334221,486.842156 C648.040104,486.784328 647.745986,486.7265 647.451868,486.7265 C646.863633,486.7265 646.334221,486.899983 645.863633,487.189123 L639.040104,480.423256 C639.334221,479.960632 639.451868,479.440181 639.451868,478.91973 C639.451868,478.34145 639.275398,477.763171 638.98128,477.300548 L645.863633,470.014229 C646.334221,470.303368 646.863633,470.476852 647.451868,470.476852 C648.863633,470.476852 649.98128,469.551605 650.334221,468.279391 L657.628339,468.279391 C657.80481,468.799842 658.040104,469.262466 658.451868,469.609433 L648.334221,486.842156 M662.098927,500.084751 C661.628339,499.795611 661.098927,499.622127 660.510692,499.622127 C659.922457,499.622127 659.393045,499.795611 658.922457,500.084751 L649.98128,491.237078 C650.157751,491.005766 650.275398,490.716627 650.334221,490.427487 L670.745986,490.427487 C670.80481,490.716627 670.922457,490.947938 671.098927,491.17925 L662.098927,500.084751 M670.80481,488.750477 L650.275398,488.750477 C650.157751,488.345682 649.922457,488.056542 649.687163,487.709574 L659.863633,470.361196 C660.040104,470.419024 660.275398,470.419024 660.451868,470.419024 C660.628339,470.419024 660.863633,470.419024 661.040104,470.361196 L671.275398,487.82523 C671.098927,488.11437 670.922457,488.40351 670.80481,488.750477 M681.98128,480.423256 L675.216574,487.131295 C674.745986,486.899983 674.275398,486.7265 673.687163,486.7265 C673.334221,486.7265 673.040104,486.784328 672.745986,486.899983 L662.569515,469.609433 C662.98128,469.262466 663.275398,468.799842 663.393045,468.279391 L670.80481,468.279391 C671.157751,469.551605 672.334221,470.476852 673.687163,470.476852 C674.216574,470.476852 674.745986,470.303368 675.216574,470.072057 L682.098927,477.358376 C681.80481,477.820999 681.628339,478.399278 681.628339,478.977557 C681.569515,479.440181 681.745986,479.960632 681.98128,480.423256" transform="scale(-1 1) rotate(9 0 -7906.069)"/>
    <path d="M932.786612,373.906551 C932.350882,373.906551 931.969618,374.013744 931.588354,374.174534 L925.161339,367.314167 C925.379204,366.938991 925.488137,366.510218 925.488137,366.027848 C925.488137,364.527143 924.235413,363.294421 922.710359,363.294421 C921.457636,363.294421 920.368311,364.09837 920.041514,365.277496 L913.178768,365.277496 C912.851971,364.151967 911.762646,363.294421 910.509923,363.294421 C909.2572,363.294421 908.167875,364.09837 907.841078,365.277496 L901.087265,365.277496 C900.760468,364.151967 899.671143,363.294421 898.41842,363.294421 C896.893365,363.294421 895.640642,364.527143 895.640642,366.027848 C895.640642,366.456621 895.749575,366.885394 895.912973,367.26057 L889.377025,374.174534 C888.995762,374.013744 888.614498,373.906551 888.178768,373.906551 C886.653714,373.906551 885.400991,375.139273 885.400991,376.639978 C885.400991,378.140683 886.653714,379.373405 888.178768,379.373405 C888.614498,379.373405 889.050228,379.266212 889.431492,379.051826 L895.858507,385.376226 C895.695108,385.751402 895.586176,386.126579 895.586176,386.608948 C895.586176,388.109654 896.838899,389.342376 898.363954,389.342376 C898.799683,389.342376 899.235413,389.235182 899.562211,389.074393 L907.95001,397.381868 C907.786612,397.757044 907.677679,398.132221 907.677679,398.560993 C907.677679,400.061699 908.930402,401.294421 910.455457,401.294421 C911.980511,401.294421 913.233235,400.061699 913.233235,398.560993 C913.233235,398.132221 913.124302,397.757044 912.960903,397.381868 L921.348703,389.074393 C921.729967,389.288779 922.165697,389.395972 922.601426,389.395972 C924.126481,389.395972 925.379204,388.16325 925.379204,386.662545 C925.379204,386.180175 925.270272,385.751402 925.052407,385.376226 L931.37049,379.105422 C931.751753,379.319809 932.187483,379.427002 932.623213,379.427002 C934.148267,379.427002 935.400991,378.19428 935.400991,376.693575 C935.400991,375.192869 934.366132,373.906551 932.786612,373.906551 M899.235413,383.982714 C898.963082,383.929118 898.690751,383.875521 898.41842,383.875521 C897.873758,383.875521 897.383561,384.036311 896.947832,384.304294 L890.629749,378.03349 C890.90208,377.604717 891.011012,377.122347 891.011012,376.639978 C891.011012,376.104012 890.847614,375.568046 890.575283,375.139273 L896.947832,368.386099 C897.383561,368.654082 897.873758,368.814872 898.41842,368.814872 C899.725609,368.814872 900.760468,367.957326 901.087265,366.778201 L907.841078,366.778201 C908.004476,367.26057 908.222341,367.689343 908.603605,368.010923 L899.235413,383.982714 M911.980511,396.256339 C911.544781,395.988356 911.054585,395.827566 910.509923,395.827566 C909.965261,395.827566 909.475065,395.988356 909.039335,396.256339 L900.760468,388.056057 C900.923866,387.84167 901.032799,387.573687 901.087265,387.305704 L919.987047,387.305704 C920.041514,387.573687 920.150446,387.788074 920.313845,388.00246 L911.980511,396.256339 M920.041514,385.751402 L901.032799,385.751402 C900.923866,385.376226 900.706002,385.108243 900.488137,384.786663 L909.910795,368.707679 C910.074193,368.761276 910.292058,368.761276 910.455457,368.761276 C910.618856,368.761276 910.83672,368.761276 911.000119,368.707679 L920.477243,384.893857 C920.313845,385.16184 920.150446,385.429823 920.041514,385.751402 M930.390097,378.03349 L924.126481,384.250697 C923.690751,384.036311 923.255021,383.875521 922.710359,383.875521 C922.383561,383.875521 922.11123,383.929118 921.838899,384.036311 L912.416241,368.010923 C912.797505,367.689343 913.069836,367.26057 913.178768,366.778201 L920.041514,366.778201 C920.368311,367.957326 921.457636,368.814872 922.710359,368.814872 C923.200555,368.814872 923.690751,368.654082 924.126481,368.439696 L930.49903,375.192869 C930.226699,375.621642 930.0633,376.157608 930.0633,376.693575 C930.008834,377.122347 930.172232,377.604717 930.390097,378.03349" transform="scale(1 -1) rotate(8 6377.466 0)"/>
    <path d="M986.983742,159.662583 C986.609015,159.662583 986.281128,159.752851 985.953241,159.888253 L980.426008,154.111102 C980.613372,153.795164 980.707054,153.434092 980.707054,153.027886 C980.707054,151.764134 979.629712,150.726052 978.318165,150.726052 C977.240823,150.726052 976.304004,151.403062 976.022958,152.39601 L970.120997,152.39601 C969.839952,151.448196 968.903132,150.726052 967.82579,150.726052 C966.748448,150.726052 965.811629,151.403062 965.530583,152.39601 L959.722305,152.39601 C959.441259,151.448196 958.50444,150.726052 957.427098,150.726052 C956.115551,150.726052 955.038209,151.764134 955.038209,153.027886 C955.038209,153.388958 955.131891,153.75003 955.272413,154.065968 L949.651498,159.888253 C949.323612,159.752851 948.995725,159.662583 948.620997,159.662583 C947.30945,159.662583 946.232108,160.700665 946.232108,161.964416 C946.232108,163.228168 947.30945,164.26625 948.620997,164.26625 C948.995725,164.26625 949.370453,164.175982 949.698339,163.995446 L955.225572,169.321257 C955.08505,169.637195 954.991368,169.953133 954.991368,170.359339 C954.991368,171.62309 956.06871,172.661172 957.380257,172.661172 C957.754984,172.661172 958.129712,172.570904 958.410758,172.435502 L965.624265,179.431271 C965.483742,179.747209 965.390061,180.063147 965.390061,180.424219 C965.390061,181.687971 966.467403,182.726052 967.778949,182.726052 C969.090496,182.726052 970.167838,181.687971 970.167838,180.424219 C970.167838,180.063147 970.074156,179.747209 969.933633,179.431271 L977.147141,172.435502 C977.475028,172.616038 977.849756,172.706306 978.224483,172.706306 C979.53603,172.706306 980.613372,171.668224 980.613372,170.404473 C980.613372,169.998267 980.51969,169.637195 980.332326,169.321257 L985.765878,164.04058 C986.093764,164.221116 986.468492,164.311384 986.84322,164.311384 C988.154766,164.311384 989.232108,163.273302 989.232108,162.00955 C989.232108,160.745798 988.34213,159.662583 986.983742,159.662583 M958.129712,168.147773 C957.895507,168.102639 957.661302,168.057505 957.427098,168.057505 C956.958688,168.057505 956.537119,168.192907 956.162392,168.418577 L950.72884,163.1379 C950.963045,162.776828 951.056727,162.370622 951.056727,161.964416 C951.056727,161.513076 950.916204,161.061736 950.682,160.700665 L956.162392,155.013782 C956.537119,155.239452 956.958688,155.374854 957.427098,155.374854 C958.551281,155.374854 959.441259,154.65271 959.722305,153.659762 L965.530583,153.659762 C965.671106,154.065968 965.85847,154.42704 966.186357,154.697844 L958.129712,168.147773 M969.090496,178.483457 C968.715769,178.257787 968.2942,178.122385 967.82579,178.122385 C967.357381,178.122385 966.935812,178.257787 966.561084,178.483457 L959.441259,171.577956 C959.581782,171.39742 959.675464,171.171751 959.722305,170.946081 L975.976117,170.946081 C976.022958,171.171751 976.11664,171.352287 976.257163,171.532822 L969.090496,178.483457 M976.022958,169.637195 L959.675464,169.637195 C959.581782,169.321257 959.394418,169.095587 959.207054,168.824783 L967.31054,155.284586 C967.451063,155.32972 967.638427,155.32972 967.778949,155.32972 C967.919472,155.32972 968.106836,155.32972 968.247359,155.284586 L976.397686,168.915051 C976.257163,169.140721 976.11664,169.366391 976.022958,169.637195 M984.92274,163.1379 L979.53603,168.373443 C979.161302,168.192907 978.786575,168.057505 978.318165,168.057505 C978.037119,168.057505 977.802915,168.102639 977.56871,168.192907 L969.465224,154.697844 C969.793111,154.42704 970.027315,154.065968 970.120997,153.659762 L976.022958,153.659762 C976.304004,154.65271 977.240823,155.374854 978.318165,155.374854 C978.739734,155.374854 979.161302,155.239452 979.53603,155.058916 L985.016422,160.745798 C984.782217,161.10687 984.641695,161.55821 984.641695,162.00955 C984.594854,162.370622 984.735376,162.776828 984.92274,163.1379" transform="rotate(-14 967.732 166.726)"/>
    <path d="M450.632536,497.658453 C450.240379,497.658453 449.897241,497.754363 449.554104,497.898227 L443.76979,491.760004 C443.965869,491.42432 444.063908,491.040681 444.063908,490.609088 C444.063908,489.266351 442.936457,488.163389 441.563908,488.163389 C440.436457,488.163389 439.456065,488.882712 439.161947,489.937719 L432.985477,489.937719 C432.691359,488.930667 431.710967,488.163389 430.583516,488.163389 C429.456065,488.163389 428.475673,488.882712 428.181555,489.937719 L422.103124,489.937719 C421.809006,488.930667 420.828614,488.163389 419.701163,488.163389 C418.328614,488.163389 417.201163,489.266351 417.201163,490.609088 C417.201163,490.992726 417.299202,491.376365 417.446261,491.712049 L411.563908,497.898227 C411.220771,497.754363 410.877634,497.658453 410.485477,497.658453 C409.112928,497.658453 407.985477,498.761415 407.985477,500.104151 C407.985477,501.446887 409.112928,502.549849 410.485477,502.549849 C410.877634,502.549849 411.26979,502.453939 411.612928,502.26212 L417.397241,507.920794 C417.250183,508.256478 417.152143,508.592162 417.152143,509.023756 C417.152143,510.366492 418.279594,511.469454 419.652143,511.469454 C420.0443,511.469454 420.436457,511.373544 420.730575,511.22968 L428.279594,518.662684 C428.132536,518.998368 428.034496,519.334052 428.034496,519.717691 C428.034496,521.060427 429.161947,522.163389 430.534496,522.163389 C431.907045,522.163389 433.034496,521.060427 433.034496,519.717691 C433.034496,519.334052 432.936457,518.998368 432.789398,518.662684 L440.338418,511.22968 C440.681555,511.421499 441.073712,511.517409 441.465869,511.517409 C442.838418,511.517409 443.965869,510.414447 443.965869,509.071711 C443.965869,508.640117 443.86783,508.256478 443.671751,507.920794 L449.358026,502.310075 C449.701163,502.501894 450.09332,502.597804 450.485477,502.597804 C451.858026,502.597804 452.985477,501.494842 452.985477,500.152106 C452.985477,498.80937 452.054104,497.658453 450.632536,497.658453 M420.436457,506.673968 C420.191359,506.626013 419.946261,506.578058 419.701163,506.578058 C419.210967,506.578058 418.76979,506.721922 418.377634,506.961697 L412.691359,501.350977 C412.936457,500.967339 413.034496,500.535745 413.034496,500.104151 C413.034496,499.624602 412.887438,499.145054 412.642339,498.761415 L418.377634,492.719102 C418.76979,492.958876 419.210967,493.102741 419.701163,493.102741 C420.877634,493.102741 421.809006,492.335463 422.103124,491.280456 L428.181555,491.280456 C428.328614,491.712049 428.524692,492.095688 428.86783,492.383418 L420.436457,506.673968 M431.907045,517.655632 C431.514889,517.415858 431.073712,517.271993 430.583516,517.271993 C430.09332,517.271993 429.652143,517.415858 429.259987,517.655632 L421.809006,510.318537 C421.956065,510.126718 422.054104,509.886944 422.103124,509.647169 L439.112928,509.647169 C439.161947,509.886944 439.259987,510.078763 439.407045,510.270583 L431.907045,517.655632 M439.161947,508.256478 L422.054104,508.256478 C421.956065,507.920794 421.759987,507.68102 421.563908,507.393291 L430.0443,493.006831 C430.191359,493.054786 430.387438,493.054786 430.534496,493.054786 C430.681555,493.054786 430.877634,493.054786 431.024692,493.006831 L439.554104,507.4892 C439.407045,507.728975 439.259987,507.968749 439.161947,508.256478 M448.475673,501.350977 L442.838418,506.913742 C442.446261,506.721922 442.054104,506.578058 441.563908,506.578058 C441.26979,506.578058 441.024692,506.626013 440.779594,506.721922 L432.299202,492.383418 C432.642339,492.095688 432.887438,491.712049 432.985477,491.280456 L439.161947,491.280456 C439.456065,492.335463 440.436457,493.102741 441.563908,493.102741 C442.005085,493.102741 442.446261,492.958876 442.838418,492.767056 L448.573712,498.80937 C448.328614,499.193009 448.181555,499.672557 448.181555,500.152106 C448.132536,500.535745 448.279594,500.967339 448.475673,501.350977" transform="rotate(50 430.485 505.163)"/>
    <path d="M580.632536,110.658453 C580.240379,110.658453 579.897241,110.754363 579.554104,110.898227 L573.76979,104.760004 C573.965869,104.42432 574.063908,104.040681 574.063908,103.609088 C574.063908,102.266351 572.936457,101.163389 571.563908,101.163389 C570.436457,101.163389 569.456065,101.882712 569.161947,102.937719 L562.985477,102.937719 C562.691359,101.930667 561.710967,101.163389 560.583516,101.163389 C559.456065,101.163389 558.475673,101.882712 558.181555,102.937719 L552.103124,102.937719 C551.809006,101.930667 550.828614,101.163389 549.701163,101.163389 C548.328614,101.163389 547.201163,102.266351 547.201163,103.609088 C547.201163,103.992726 547.299202,104.376365 547.446261,104.712049 L541.563908,110.898227 C541.220771,110.754363 540.877634,110.658453 540.485477,110.658453 C539.112928,110.658453 537.985477,111.761415 537.985477,113.104151 C537.985477,114.446887 539.112928,115.549849 540.485477,115.549849 C540.877634,115.549849 541.26979,115.453939 541.612928,115.26212 L547.397241,120.920794 C547.250183,121.256478 547.152143,121.592162 547.152143,122.023756 C547.152143,123.366492 548.279594,124.469454 549.652143,124.469454 C550.0443,124.469454 550.436457,124.373544 550.730575,124.22968 L558.279594,131.662684 C558.132536,131.998368 558.034496,132.334052 558.034496,132.717691 C558.034496,134.060427 559.161947,135.163389 560.534496,135.163389 C561.907045,135.163389 563.034496,134.060427 563.034496,132.717691 C563.034496,132.334052 562.936457,131.998368 562.789398,131.662684 L570.338418,124.22968 C570.681555,124.421499 571.073712,124.517409 571.465869,124.517409 C572.838418,124.517409 573.965869,123.414447 573.965869,122.071711 C573.965869,121.640117 573.86783,121.256478 573.671751,120.920794 L579.358026,115.310075 C579.701163,115.501894 580.09332,115.597804 580.485477,115.597804 C581.858026,115.597804 582.985477,114.494842 582.985477,113.152106 C582.985477,111.80937 582.054104,110.658453 580.632536,110.658453 M550.436457,119.673968 C550.191359,119.626013 549.946261,119.578058 549.701163,119.578058 C549.210967,119.578058 548.76979,119.721922 548.377634,119.961697 L542.691359,114.350977 C542.936457,113.967339 543.034496,113.535745 543.034496,113.104151 C543.034496,112.624602 542.887438,112.145054 542.642339,111.761415 L548.377634,105.719102 C548.76979,105.958876 549.210967,106.102741 549.701163,106.102741 C550.877634,106.102741 551.809006,105.335463 552.103124,104.280456 L558.181555,104.280456 C558.328614,104.712049 558.524692,105.095688 558.86783,105.383418 L550.436457,119.673968 M561.907045,130.655632 C561.514889,130.415858 561.073712,130.271993 560.583516,130.271993 C560.09332,130.271993 559.652143,130.415858 559.259987,130.655632 L551.809006,123.318537 C551.956065,123.126718 552.054104,122.886944 552.103124,122.647169 L569.112928,122.647169 C569.161947,122.886944 569.259987,123.078763 569.407045,123.270583 L561.907045,130.655632 M569.161947,121.256478 L552.054104,121.256478 C551.956065,120.920794 551.759987,120.68102 551.563908,120.393291 L560.0443,106.006831 C560.191359,106.054786 560.387438,106.054786 560.534496,106.054786 C560.681555,106.054786 560.877634,106.054786 561.024692,106.006831 L569.554104,120.4892 C569.407045,120.728975 569.259987,120.968749 569.161947,121.256478 M578.475673,114.350977 L572.838418,119.913742 C572.446261,119.721922 572.054104,119.578058 571.563908,119.578058 C571.26979,119.578058 571.024692,119.626013 570.779594,119.721922 L562.299202,105.383418 C562.642339,105.095688 562.887438,104.712049 562.985477,104.280456 L569.161947,104.280456 C569.456065,105.335463 570.436457,106.102741 571.563908,106.102741 C572.005085,106.102741 572.446261,105.958876 572.838418,105.767056 L578.573712,111.80937 C578.328614,112.193009 578.181555,112.672557 578.181555,113.152106 C578.132536,113.535745 578.279594,113.967339 578.475673,114.350977" transform="rotate(50 560.485 118.163)"/>
    <path d="M194.66223,321.294756 C194.313646,321.294756 194.008635,321.379383 193.703624,321.506322 L188.562012,316.090243 C188.736304,315.794051 188.82345,315.455546 188.82345,315.074728 C188.82345,313.889961 187.821271,312.916759 186.601228,312.916759 C185.599049,312.916759 184.727589,313.551456 184.466151,314.482344 L178.975955,314.482344 C178.714518,313.593769 177.843058,312.916759 176.840879,312.916759 C175.838701,312.916759 174.967241,313.551456 174.705803,314.482344 L169.302753,314.482344 C169.041315,313.593769 168.169855,312.916759 167.167677,312.916759 C165.947633,312.916759 164.945454,313.889961 164.945454,315.074728 C164.945454,315.413233 165.0326,315.751738 165.163319,316.04793 L159.934561,321.506322 C159.62955,321.379383 159.324539,321.294756 158.975955,321.294756 C157.755912,321.294756 156.753733,322.267958 156.753733,323.452725 C156.753733,324.637493 157.755912,325.610694 158.975955,325.610694 C159.324539,325.610694 159.673123,325.526068 159.978134,325.356816 L165.119746,330.349763 C164.989027,330.645955 164.901881,330.942147 164.901881,331.322965 C164.901881,332.507732 165.90406,333.480934 167.124104,333.480934 C167.472687,333.480934 167.821271,333.396308 168.082709,333.269368 L174.792949,339.827902 C174.66223,340.124093 174.575084,340.420285 174.575084,340.75879 C174.575084,341.943557 175.577263,342.916759 176.797306,342.916759 C178.01735,342.916759 179.019528,341.943557 179.019528,340.75879 C179.019528,340.420285 178.932382,340.124093 178.801663,339.827902 L185.511903,333.269368 C185.816914,333.438621 186.165498,333.523247 186.514082,333.523247 C187.734125,333.523247 188.736304,332.550045 188.736304,331.365278 C188.736304,330.98446 188.649158,330.645955 188.474866,330.349763 L193.529332,325.399129 C193.834343,325.568381 194.182927,325.653007 194.531511,325.653007 C195.751555,325.653007 196.753733,324.679806 196.753733,323.495038 C196.753733,322.310271 195.925846,321.294756 194.66223,321.294756 M167.821271,329.249622 C167.603406,329.207309 167.385541,329.164996 167.167677,329.164996 C166.731947,329.164996 166.33979,329.291935 165.991206,329.503501 L160.93674,324.552866 C161.154605,324.214361 161.241751,323.833543 161.241751,323.452725 C161.241751,323.029594 161.111032,322.606463 160.893167,322.267958 L165.991206,316.936505 C166.33979,317.148071 166.731947,317.27501 167.167677,317.27501 C168.213428,317.27501 169.041315,316.598 169.302753,315.667112 L174.705803,315.667112 C174.836522,316.04793 175.010814,316.386435 175.315825,316.640313 L167.821271,329.249622 M178.01735,338.939326 C177.668766,338.727761 177.276609,338.600821 176.840879,338.600821 C176.405149,338.600821 176.012992,338.727761 175.664409,338.939326 L169.041315,332.465419 C169.172034,332.296167 169.25918,332.084601 169.302753,331.873036 L184.422579,331.873036 C184.466151,332.084601 184.553297,332.253854 184.684016,332.423106 L178.01735,338.939326 M184.466151,330.645955 L169.25918,330.645955 C169.172034,330.349763 168.997742,330.138198 168.82345,329.884319 L176.361576,317.190384 C176.492295,317.232697 176.666587,317.232697 176.797306,317.232697 C176.928025,317.232697 177.102317,317.232697 177.233036,317.190384 L184.814735,329.968945 C184.684016,330.180511 184.553297,330.392077 184.466151,330.645955 M192.745019,324.552866 L187.734125,329.461188 C187.385541,329.291935 187.036958,329.164996 186.601228,329.164996 C186.33979,329.164996 186.121925,329.207309 185.90406,329.291935 L178.365934,316.640313 C178.670945,316.386435 178.888809,316.04793 178.975955,315.667112 L184.466151,315.667112 C184.727589,316.598 185.599049,317.27501 186.601228,317.27501 C186.993385,317.27501 187.385541,317.148071 187.734125,316.978818 L192.832165,322.310271 C192.6143,322.648776 192.483581,323.071907 192.483581,323.495038 C192.440008,323.833543 192.570727,324.214361 192.745019,324.552866" transform="scale(1 -1) rotate(21 1946.034 0)"/>
    <path d="M366.76115,10.8127905 C366.395137,10.8127905 366.074876,10.9030585 365.754614,11.0384604 L360.355921,5.26130951 C360.538928,4.94537157 360.630431,4.58429964 360.630431,4.17809371 C360.630431,2.91434195 359.578143,1.87626014 358.297098,1.87626014 C357.24481,1.87626014 356.329777,2.55327002 356.055268,3.54621783 L350.290562,3.54621783 C350.016052,2.59840401 349.101019,1.87626014 348.048732,1.87626014 C346.996444,1.87626014 346.081411,2.55327002 345.806902,3.54621783 L340.133699,3.54621783 C339.859189,2.59840401 338.944157,1.87626014 337.891869,1.87626014 C336.610823,1.87626014 335.558536,2.91434195 335.558536,4.17809371 C335.558536,4.53916565 335.650039,4.90023758 335.787294,5.21617552 L330.297098,11.0384604 C329.976836,10.9030585 329.656575,10.8127905 329.290562,10.8127905 C328.009516,10.8127905 326.957228,11.8508723 326.957228,13.114624 C326.957228,14.3783758 328.009516,15.4164576 329.290562,15.4164576 C329.656575,15.4164576 330.022588,15.3261896 330.342849,15.1456537 L335.741542,20.4714647 C335.604287,20.7874026 335.512784,21.1033405 335.512784,21.5095465 C335.512784,22.7732982 336.565072,23.81138 337.846117,23.81138 C338.21213,23.81138 338.578143,23.721112 338.852653,23.5857101 L345.898405,30.5814788 C345.76115,30.8974167 345.669647,31.2133546 345.669647,31.5744266 C345.669647,32.8381783 346.721934,33.8762601 348.00298,33.8762601 C349.284026,33.8762601 350.336313,32.8381783 350.336313,31.5744266 C350.336313,31.2133546 350.24481,30.8974167 350.107555,30.5814788 L357.153307,23.5857101 C357.473568,23.766246 357.839581,23.856514 358.205594,23.856514 C359.48664,23.856514 360.538928,22.8184322 360.538928,21.5546805 C360.538928,21.1484745 360.447425,20.7874026 360.264418,20.4714647 L365.571608,15.1907876 C365.891869,15.3713236 366.257882,15.4615916 366.623895,15.4615916 C367.904941,15.4615916 368.957228,14.4235098 368.957228,13.159758 C368.957228,11.8960063 368.087947,10.8127905 366.76115,10.8127905 M338.578143,19.2979809 C338.349385,19.2528469 338.120627,19.2077129 337.891869,19.2077129 C337.434353,19.2077129 337.022588,19.3431149 336.656575,19.5687848 L331.349385,14.2881078 C331.578143,13.9270359 331.669647,13.52083 331.669647,13.114624 C331.669647,12.6632841 331.532392,12.2119442 331.303634,11.8508723 L336.656575,6.16398934 C337.022588,6.3896593 337.434353,6.52506127 337.891869,6.52506127 C338.989908,6.52506127 339.859189,5.80291741 340.133699,4.80996959 L345.806902,4.80996959 C345.944157,5.21617552 346.127163,5.57724745 346.447425,5.8480514 L338.578143,19.2979809 M349.284026,29.6336649 C348.918013,29.407995 348.506248,29.272593 348.048732,29.272593 C347.591215,29.272593 347.179451,29.407995 346.813438,29.6336649 L339.859189,22.7281642 C339.996444,22.5476283 340.087947,22.3219583 340.133699,22.0962884 L356.009516,22.0962884 C356.055268,22.3219583 356.146771,22.5024943 356.284026,22.6830302 L349.284026,29.6336649 M356.055268,20.7874026 L340.087947,20.7874026 C339.996444,20.4714647 339.813438,20.2457947 339.630431,19.9749908 L347.545464,6.43479329 C347.682719,6.47992728 347.865725,6.47992728 348.00298,6.47992728 C348.140235,6.47992728 348.323242,6.47992728 348.460496,6.43479329 L356.421281,20.0652587 C356.284026,20.2909287 356.146771,20.5165986 356.055268,20.7874026 M364.748078,14.2881078 L359.48664,19.5236508 C359.120627,19.3431149 358.754614,19.2077129 358.297098,19.2077129 C358.022588,19.2077129 357.79383,19.2528469 357.565072,19.3431149 L349.650039,5.8480514 C349.9703,5.57724745 350.199059,5.21617552 350.290562,4.80996959 L356.055268,4.80996959 C356.329777,5.80291741 357.24481,6.52506127 358.297098,6.52506127 C358.708862,6.52506127 359.120627,6.3896593 359.48664,6.20912333 L364.839581,11.8960063 C364.610823,12.2570782 364.473568,12.7084181 364.473568,13.159758 C364.427817,13.52083 364.565072,13.9270359 364.748078,14.2881078" transform="rotate(175 347.957 17.876)"/>
    <path d="M108.328226,484.594861 C107.848923,484.594861 107.429533,484.710517 107.010143,484.884001 L99.9404267,477.482026 C100.180078,477.07723 100.299904,476.614607 100.299904,476.094156 C100.299904,474.474974 98.9219082,473.144931 97.2443482,473.144931 C95.8663526,473.144931 94.6680955,474.01235 94.3086184,475.284565 L86.7595988,475.284565 C86.4001217,474.070178 85.2018646,473.144931 83.8238689,473.144931 C82.4458733,473.144931 81.2476162,474.01235 80.8881391,475.284565 L73.4589452,475.284565 C73.0994681,474.070178 71.901211,473.144931 70.5232153,473.144931 C68.8456554,473.144931 67.4676598,474.474974 67.4676598,476.094156 C67.4676598,476.556779 67.5874855,477.019403 67.7672241,477.424198 L60.5776816,484.884001 C60.1582916,484.710517 59.7389016,484.594861 59.2595988,484.594861 C57.5820389,484.594861 56.2040432,485.924903 56.2040432,487.544085 C56.2040432,489.163267 57.5820389,490.493309 59.2595988,490.493309 C59.7389016,490.493309 60.2182044,490.377654 60.6375944,490.146342 L67.7073112,496.970037 C67.5275726,497.374833 67.4077469,497.779628 67.4077469,498.30008 C67.4077469,499.919261 68.7857426,501.249304 70.4633025,501.249304 C70.9426053,501.249304 71.4219082,501.133648 71.7813853,500.960164 L81.0079648,509.923493 C80.8282262,510.328288 80.7084005,510.733084 80.7084005,511.195707 C80.7084005,512.814889 82.0863962,514.144931 83.7639561,514.144931 C85.441516,514.144931 86.8195116,512.814889 86.8195116,511.195707 C86.8195116,510.733084 86.6996859,510.328288 86.5199474,509.923493 L95.7465269,500.960164 C96.1659169,501.191476 96.6452197,501.307132 97.1245225,501.307132 C98.8020824,501.307132 100.180078,499.977089 100.180078,498.357907 C100.180078,497.837456 100.060252,497.374833 99.820601,496.970037 L106.770492,490.20417 C107.189882,490.435482 107.669185,490.551137 108.148488,490.551137 C109.826048,490.551137 111.204043,489.221095 111.204043,487.601913 C111.204043,485.982731 110.065699,484.594861 108.328226,484.594861 M71.4219082,495.466511 C71.1223439,495.408683 70.8227796,495.350855 70.5232153,495.350855 C69.9240868,495.350855 69.3848711,495.524339 68.9055683,495.813479 L61.9556772,489.047611 C62.2552415,488.584988 62.3750672,488.064537 62.3750672,487.544085 C62.3750672,486.965806 62.1953286,486.387527 61.8957644,485.924903 L68.9055683,478.638584 C69.3848711,478.927724 69.9240868,479.101208 70.5232153,479.101208 C71.9611238,479.101208 73.0994681,478.175961 73.4589452,476.903747 L80.8881391,476.903747 C81.0678777,477.424198 81.3075291,477.886821 81.726919,478.233789 L71.4219082,495.466511 M85.441516,508.709106 C84.9622132,508.419967 84.4229975,508.246483 83.8238689,508.246483 C83.2247404,508.246483 82.6855247,508.419967 82.2062219,508.709106 L73.0994681,499.861434 C73.2792066,499.630122 73.3990323,499.340982 73.4589452,499.051843 L94.2487055,499.051843 C94.3086184,499.340982 94.4284441,499.572294 94.6081827,499.803606 L85.441516,508.709106 M94.3086184,497.374833 L73.3990323,497.374833 C73.2792066,496.970037 73.0395552,496.680898 72.7999038,496.33393 L83.1648275,478.985552 C83.3445661,479.04338 83.5842175,479.04338 83.7639561,479.04338 C83.9436946,479.04338 84.1833461,479.04338 84.3630846,478.985552 L94.7879212,496.449586 C94.6081827,496.738726 94.4284441,497.027865 94.3086184,497.374833 M105.692061,489.047611 L98.8020824,495.755651 C98.3227796,495.524339 97.8434768,495.350855 97.2443482,495.350855 C96.8848711,495.350855 96.5853068,495.408683 96.2857426,495.524339 L85.9208188,478.233789 C86.3402088,477.886821 86.6397731,477.424198 86.7595988,476.903747 L94.3086184,476.903747 C94.6680955,478.175961 95.8663526,479.101208 97.2443482,479.101208 C97.7835639,479.101208 98.3227796,478.927724 98.8020824,478.696412 L105.811886,485.982731 C105.512322,486.445355 105.332584,487.023634 105.332584,487.601913 C105.272671,488.064537 105.452409,488.584988 105.692061,489.047611" transform="scale(1 -1) rotate(86 613.073 0)"/>
    <path d="M55.4357494,218.892524 C54.9825903,218.892524 54.5860762,219.002538 54.189562,219.167559 L47.5054661,212.126656 C47.7320457,211.741607 47.8453354,211.301551 47.8453354,210.806487 C47.8453354,209.26629 46.5425032,208.001127 44.9564465,208.001127 C43.6536143,208.001127 42.5207167,208.826233 42.1808474,210.036388 L35.0435925,210.036388 C34.7037232,208.88124 33.5708256,208.001127 32.2679934,208.001127 C30.9651611,208.001127 29.8322635,208.826233 29.4923942,210.036388 L22.4684291,210.036388 C22.1285598,208.88124 20.9956622,208.001127 19.69283,208.001127 C18.1067733,208.001127 16.8039411,209.26629 16.8039411,210.806487 C16.8039411,211.246543 16.9172308,211.6866 17.0871655,212.071649 L10.2897799,219.167559 C9.8932657,219.002538 9.49675154,218.892524 9.0435925,218.892524 C7.45753585,218.892524 6.15470361,220.157686 6.15470361,221.697883 C6.15470361,223.238081 7.45753585,224.503243 9.0435925,224.503243 C9.49675154,224.503243 9.94991058,224.393229 10.3464247,224.173201 L17.0305206,230.664033 C16.860586,231.049082 16.7472962,231.434132 16.7472962,231.929195 C16.7472962,233.469393 18.0501284,234.734555 19.6361851,234.734555 C20.0893441,234.734555 20.5425032,234.624541 20.8823725,234.459519 L29.605684,242.985613 C29.4357494,243.370662 29.3224596,243.755711 29.3224596,244.195768 C29.3224596,245.735965 30.6252918,247.001127 32.2113485,247.001127 C33.7974051,247.001127 35.1002374,245.735965 35.1002374,244.195768 C35.1002374,243.755711 34.9869476,243.370662 34.817013,242.985613 L43.5403245,234.459519 C43.9368387,234.679548 44.3899977,234.789562 44.8431568,234.789562 C46.4292134,234.789562 47.7320457,233.5244 47.7320457,231.984202 C47.7320457,231.489139 47.6187559,231.049082 47.3921764,230.664033 L53.9629825,224.228208 C54.3594966,224.448236 54.8126557,224.55825 55.2658147,224.55825 C56.8518714,224.55825 58.1547036,223.293088 58.1547036,221.75289 C58.1547036,220.212693 57.0784509,218.892524 55.4357494,218.892524 M20.5425032,229.23385 C20.2592788,229.178842 19.9760544,229.123835 19.69283,229.123835 C19.1263812,229.123835 18.6165772,229.288857 18.1634182,229.563892 L11.5926121,223.128067 C11.8758365,222.68801 11.9891263,222.192947 11.9891263,221.697883 C11.9891263,221.147813 11.8191916,220.597742 11.5359672,220.157686 L18.1634182,213.226797 C18.6165772,213.501833 19.1263812,213.666854 19.69283,213.666854 C21.0523071,213.666854 22.1285598,212.786741 22.4684291,211.576586 L29.4923942,211.576586 C29.6623289,212.071649 29.8889084,212.511706 30.2854226,212.841748 L20.5425032,229.23385 M33.7974051,241.830464 C33.3442461,241.555429 32.8344422,241.390408 32.2679934,241.390408 C31.7015446,241.390408 31.1917406,241.555429 30.7385816,241.830464 L22.1285598,233.414385 C22.2984945,233.194357 22.4117842,232.919322 22.4684291,232.644287 L42.1242025,232.644287 C42.1808474,232.919322 42.2941372,233.13935 42.4640718,233.359378 L33.7974051,241.830464 M42.1808474,231.049082 L22.4117842,231.049082 C22.2984945,230.664033 22.0719149,230.388998 21.8453354,230.058955 L31.6448997,213.55684 C31.8148343,213.611847 32.0414138,213.611847 32.2113485,213.611847 C32.3812831,213.611847 32.6078626,213.611847 32.7777973,213.55684 L42.6340064,230.168969 C42.4640718,230.444005 42.2941372,230.71904 42.1808474,231.049082 M52.9433746,223.128067 L46.4292134,229.508885 C45.9760544,229.288857 45.5228953,229.123835 44.9564465,229.123835 C44.6165772,229.123835 44.3333528,229.178842 44.0501284,229.288857 L34.2505642,212.841748 C34.6470783,212.511706 34.9303027,212.071649 35.0435925,211.576586 L42.1808474,211.576586 C42.5207167,212.786741 43.6536143,213.666854 44.9564465,213.666854 C45.4662504,213.666854 45.9760544,213.501833 46.4292134,213.281804 L53.0566644,220.212693 C52.77344,220.652749 52.6035054,221.20282 52.6035054,221.75289 C52.5468605,222.192947 52.7167951,222.68801 52.9433746,223.128067" transform="scale(1 -1) rotate(-28 -880.302 0)"/>
    <path d="M128.612109,100.247117 C128.228666,100.247117 127.893154,100.340206 127.557642,100.479839 L121.901869,94.5221521 C122.09359,94.1963411 122.189451,93.8239857 122.189451,93.4050858 C122.189451,92.1018418 121.087054,91.0313199 119.745006,91.0313199 C118.64261,91.0313199 117.684004,91.7294864 117.396422,92.7534638 L111.357207,92.7534638 C111.069625,91.7760308 110.111019,91.0313199 109.008623,91.0313199 C107.906226,91.0313199 106.947621,91.7294864 106.660039,92.7534638 L100.716684,92.7534638 C100.429102,91.7760308 99.4704965,91.0313199 98.3680999,91.0313199 C97.026052,91.0313199 95.9236555,92.1018418 95.9236555,93.4050858 C95.9236555,93.7774412 96.0195161,94.1497967 96.1633069,94.4756077 L90.4116729,100.479839 C90.0761609,100.340206 89.740649,100.247117 89.3572067,100.247117 C88.0151588,100.247117 86.9127622,101.317639 86.9127622,102.620883 C86.9127622,103.924127 88.0151588,104.994649 89.3572067,104.994649 C89.740649,104.994649 90.1240912,104.90156 90.4596032,104.715382 L96.1153766,110.207625 C95.9715858,110.533436 95.8757252,110.859247 95.8757252,111.278146 C95.8757252,112.58139 96.9781217,113.651912 98.3201697,113.651912 C98.7036119,113.651912 99.0870542,113.558823 99.3746359,113.41919 L106.7559,120.633577 C106.612109,120.959388 106.516248,121.285199 106.516248,121.657554 C106.516248,122.960798 107.618645,124.03132 108.960693,124.03132 C110.30274,124.03132 111.405137,122.960798 111.405137,121.657554 C111.405137,121.285199 111.309276,120.959388 111.165486,120.633577 L118.546749,113.41919 C118.882261,113.605368 119.265703,113.698457 119.649146,113.698457 C120.991194,113.698457 122.09359,112.627935 122.09359,111.324691 C122.09359,110.905791 121.99773,110.533436 121.806008,110.207625 L127.365921,104.761926 C127.701433,104.948104 128.084876,105.041193 128.468318,105.041193 C129.810366,105.041193 130.912762,103.970671 130.912762,102.667427 C130.912762,101.364183 130.002087,100.247117 128.612109,100.247117 M99.0870542,108.997469 C98.8474028,108.950925 98.6077514,108.904381 98.3680999,108.904381 C97.8887971,108.904381 97.4574246,109.044014 97.0739823,109.276736 L91.5140694,103.831038 C91.7537209,103.458682 91.8495814,103.039783 91.8495814,102.620883 C91.8495814,102.155438 91.7057906,101.689994 91.4661392,101.317639 L97.0739823,95.4530407 C97.4574246,95.6857628 97.8887971,95.8253961 98.3680999,95.8253961 C99.5184267,95.8253961 100.429102,95.0806853 100.716684,94.0567078 L106.660039,94.0567078 C106.80383,94.4756077 106.995551,94.8479631 107.331063,95.1272297 L99.0870542,108.997469 M110.30274,119.656144 C109.919298,119.423421 109.487926,119.283788 109.008623,119.283788 C108.52932,119.283788 108.097947,119.423421 107.714505,119.656144 L100.429102,112.534846 C100.572893,112.348668 100.668754,112.115946 100.716684,111.883224 L117.348492,111.883224 C117.396422,112.115946 117.492283,112.302124 117.636074,112.488302 L110.30274,119.656144 M117.396422,110.533436 L100.668754,110.533436 C100.572893,110.207625 100.381172,109.974902 100.189451,109.695636 L108.48139,95.7323073 C108.625181,95.7788517 108.816902,95.7788517 108.960693,95.7788517 C109.104483,95.7788517 109.296205,95.7788517 109.439995,95.7323073 L117.779865,109.788725 C117.636074,110.021447 117.492283,110.254169 117.396422,110.533436 M126.503176,103.831038 L120.991194,109.230192 C120.607751,109.044014 120.224309,108.904381 119.745006,108.904381 C119.457425,108.904381 119.217773,108.950925 118.978122,109.044014 L110.686183,95.1272297 C111.021695,94.8479631 111.261346,94.4756077 111.357207,94.0567078 L117.396422,94.0567078 C117.684004,95.0806853 118.64261,95.8253961 119.745006,95.8253961 C120.176379,95.8253961 120.607751,95.6857628 120.991194,95.4995851 L126.599037,101.364183 C126.359385,101.736539 126.215594,102.201983 126.215594,102.667427 C126.167664,103.039783 126.311455,103.458682 126.503176,103.831038" transform="rotate(122 108.913 107.531)"/>
  </g>
</svg>
