<svg xmlns="http://www.w3.org/2000/svg" width="80" height="80" viewBox="0 0 80 80" xmlns:xlink="http://www.w3.org/1999/xlink">
  <defs>
    <polygon id="a" points=".009 79.999 .009 0 79.999 0 79.999 40 79.999 79.999"/>
    <path id="c" d="M39.9995312,0 C62.0907812,0 79.9992187,17.9084375 79.9992187,39.9995312 C79.9992187,62.0907812 62.0907812,79.9992187 39.9995312,79.9992187 C17.9084375,79.9992187 0,62.0907812 0,39.9995312 C0,17.9084375 17.9084375,0 39.9995312,0"/>
  </defs>
  <g fill="none" fill-rule="evenodd">
    <mask id="b" fill="white">
      <use xlink:href="#a"/>
    </mask>
    <g mask="url(#b)">
      <use fill="#FFFFFF" xlink:href="#c"/>
      <path stroke="#000000" stroke-opacity=".1" d="M39.9995312,0.5 C18.1845799,0.5 0.5,18.1845799 0.5,39.9995312 C0.5,61.814615 18.184556,79.4992187 39.9995312,79.4992187 C61.8146389,79.4992187 79.4992187,61.8146389 79.4992187,39.9995312 C79.4992187,18.184556 61.814615,0.5 39.9995312,0.5 Z"/>
    </g>
    <g transform="translate(20 28)" mask="url(#b)">
      <path stroke="#313131" stroke-width="2" d="M32.5075,8.01427083 C35.7886458,8.01427083 38.4530208,10.67875 38.4530208,13.9597917 C38.4530208,14.92875 38.2328125,15.8315625 37.8144792,16.6242708 C38.8714583,17.2629167 39.5760417,18.4298958 39.5760417,19.7511458 C39.5760417,21.7769792 37.9244792,23.4285417 35.8986458,23.4285417 L8.725625,23.4285417 C8.61552083,23.4285417 8.48333333,23.4285417 8.37333333,23.4065625 C3.92520833,23.1422917 0.401979167,19.4428125 0.401979167,14.92875 C0.401979167,10.2383333 4.21145833,6.42895833 8.90177083,6.42895833 C9.93666667,6.42895833 10.905625,6.60510417 11.8304167,6.93541667 C13.2177083,3.191875 16.8290625,0.549479167 21.0569792,0.549479167 C25.769375,0.549479167 29.7109375,3.8525 30.6578125,8.27854167 C31.2523958,8.08041667 31.8690625,7.99239583 32.5075,7.99239583 L32.5075,8.01427083"/>
      <path fill="#D74B4B" stroke="#D74B4B" d="M25.3705324,12.6510648 L22.4075694,9.68810185 C22.2266898,9.50726852 21.9335417,9.50726852 21.7528935,9.68810185 C21.5720602,9.86893519 21.5720602,10.1618981 21.7528935,10.3427778 L23.9253935,12.5154167 L16.012338,12.5154167 C15.7566435,12.5154167 15.549375,12.7226852 15.549375,12.9783796 C15.549375,13.2341204 15.7566435,13.4413426 16.012338,13.4413426 L23.9253935,13.4413426 L21.7528935,15.6140278 C21.5720602,15.7948611 21.5720602,16.0878241 21.7528935,16.2687037 C21.8433102,16.3591204 21.9617824,16.4043056 22.0802083,16.4043056 C22.1986806,16.4043056 22.317338,16.3591204 22.4075694,16.2687037 L25.3705324,13.3057407 C25.5513657,13.1248611 25.5513657,12.8318981 25.3705324,12.6510648 Z" transform="rotate(90 20.528 12.978)"/>
    </g>
  </g>
</svg>
