<svg xmlns="http://www.w3.org/2000/svg" width="80" height="80" viewBox="0 0 80 80" xmlns:xlink="http://www.w3.org/1999/xlink">
  <defs>
    <polygon id="a" points=".009 79.999 .009 0 79.999 0 79.999 40 79.999 79.999"/>
    <path id="c" d="M39.9995312,0 C62.0907812,0 79.9992187,17.9084375 79.9992187,39.9995312 C79.9992187,62.0907812 62.0907812,79.9992187 39.9995312,79.9992187 C17.9084375,79.9992187 0,62.0907812 0,39.9995312 C0,17.9084375 17.9084375,0 39.9995312,0"/>
  </defs>
  <g fill="none" fill-rule="evenodd">
    <mask id="b" fill="white">
      <use xlink:href="#a"/>
    </mask>
    <g mask="url(#b)">
      <use fill="#FFFFFF" xlink:href="#c"/>
      <path stroke="#000000" stroke-opacity=".1" d="M39.9995312,0.5 C18.1845799,0.5 0.5,18.1845799 0.5,39.9995312 C0.5,61.814615 18.184556,79.4992187 39.9995312,79.4992187 C61.8146389,79.4992187 79.4992187,61.8146389 79.4992187,39.9995312 C79.4992187,18.184556 61.814615,0.5 39.9995312,0.5 Z"/>
    </g>
    <g transform="translate(19 20)">
      <path fill="#313131" d="M41.491937,11.1835571 C40.9535073,10.1581799 40.0563556,9.40902 38.9660816,9.07170934 C37.8746512,8.73534221 36.7200801,8.85257535 35.7153813,9.40076414 C34.7106825,9.94989646 33.9751985,10.8648811 33.6446933,11.9780063 C33.4252045,12.7186744 33.4069331,13.4881201 33.5750767,14.2224195 L28.9674317,16.7388042 C27.5663116,14.7319237 25.3806753,13.3343253 22.8710098,13.0116393 L22.8710098,9.00070899 C24.6868225,8.50134768 26.0285025,6.8070103 26.0285025,4.79918631 C26.0285025,2.39885536 24.1141627,0.446463538 21.7606141,0.446463538 C19.4070654,0.446463538 17.4927256,2.39885536 17.4927256,4.79918631 C17.4927256,6.80795383 18.8334804,8.50134768 20.6502183,9.00165251 L20.6502183,13.0116393 C17.4439246,13.4227809 14.7670405,15.589825 13.5780081,18.5374012 L8.5348548,17.1515969 C8.53577994,16.3979553 8.34705198,15.6525695 7.96843965,14.9817223 C7.40017421,13.9735644 6.48058799,13.2522386 5.38013747,12.9491307 C3.10707574,12.325224 0.7606969,13.7027724 0.14918131,16.020073 C-0.148250251,17.1423976 0.00185323549,18.3154366 0.571043805,19.3233586 C1.13930924,20.330573 2.05889546,21.0528424 3.15934598,21.3550067 C3.52893823,21.4564357 3.90385002,21.5062068 4.2759864,21.5062068 C5.01424577,21.5062068 5.74140349,21.3099533 6.39825079,20.9247587 C7.05694837,20.5386205 7.58635805,19.9913753 7.95664415,19.3382192 L13.0007226,20.7240234 C12.9466021,21.1283245 12.9158413,21.5404096 12.9158413,21.9586276 C12.9158413,24.0391031 13.6115444,25.9546974 14.7751355,27.4825024 L11.0773627,31.2537771 C9.44657737,30.2982208 7.32616325,30.5258466 5.93383199,31.9449101 C4.26974173,33.6420781 4.26974173,36.4035437 5.93383199,38.1009476 C6.76599277,38.9494136 7.85834834,39.3732928 8.95139776,39.3732928 C10.0446785,39.3732928 11.1368028,38.9494136 11.9689635,38.1009476 C13.3612948,36.6809405 13.5842528,34.5183782 12.6475516,32.8551771 L16.3443992,29.0839025 C17.8424274,30.2706227 19.721612,30.9801545 21.7606141,30.9801545 C23.7996161,30.9801545 25.6788007,30.2706227 27.1759038,29.0839025 L30.8736766,32.8551771 C29.9369753,34.5183782 30.1599333,36.6809405 31.5522646,38.1009476 C32.3844254,38.9494136 33.4765496,39.3732928 34.5698303,39.3732928 C35.6628798,39.3732928 36.7552353,38.9484701 37.5873961,38.1009476 C39.2514864,36.4035437 39.2514864,33.6420781 37.5873961,31.9449101 C36.1950649,30.524903 34.0746507,30.2982208 32.4438654,31.2537771 L28.7460926,27.4825024 C29.9106089,25.9546974 30.6053868,24.0391031 30.6053868,21.9586276 C30.6053868,20.8226219 30.3967684,19.7361514 30.0190812,18.7336547 L34.6239509,16.2191571 C35.1300008,16.7692329 35.7676515,17.1801386 36.4941154,17.4039902 C36.9025634,17.5304227 37.3207254,17.5929314 37.735418,17.5929314 C38.4292708,17.5929314 39.1159538,17.4188508 39.7448157,17.0751713 C40.7495145,16.526039 41.4847672,15.6110543 41.8145786,14.4988727 C42.1453151,13.3857475 42.0305981,12.2082267 41.491937,11.1835571 Z M38.6959416,15.0784337 C38.2144077,15.3419135 37.6604819,15.3982892 37.1363918,15.2360026 C36.6134581,15.0746596 36.1832694,14.715412 35.9249248,14.223363 C35.6665803,13.7322576 35.6124598,13.1666135 35.7704269,12.6330494 C35.9286254,12.0994853 36.2808713,11.6600379 36.7633303,11.3975017 C37.0651562,11.2323846 37.3949676,11.1486466 37.7273231,11.1486466 C37.9259963,11.1486466 38.126751,11.1790754 38.3226488,11.2389893 C38.8458138,11.4000964 39.2766964,11.7605235 39.534347,12.2516289 C39.7926916,12.7436779 39.8477372,13.3083784 39.6895388,13.8419425 C39.5315716,14.3762143 39.1784006,14.814954 38.6959416,15.0784337 Z M28.3848266,21.9586276 C28.3848266,25.6839054 25.4132864,28.7154554 21.7606141,28.7154554 C18.1079417,28.7154554 15.1354764,25.6839054 15.1354764,21.9586276 C15.1354764,18.2333499 18.1079417,15.2027433 21.7606141,15.2027433 C25.4132864,15.2027433 28.3848266,18.2333499 28.3848266,21.9586276 Z M19.7132858,4.79918631 C19.7132858,3.64737656 20.631253,2.71116257 21.7606141,2.71116257 C22.88905,2.71116257 23.8079423,3.64737656 23.8079423,4.79918631 C23.8079423,5.95005253 22.88905,6.88697416 21.7606141,6.88697416 C20.631253,6.88697416 19.7132858,5.95005253 19.7132858,4.79918631 Z M3.7366315,19.1686203 C3.2090721,19.0230814 2.7682443,18.6775149 2.49532887,18.1937217 C2.22241344,17.7099286 2.15025275,17.1478228 2.29295514,16.6088334 C2.58668615,15.4966518 3.71234665,14.8361834 4.80192681,15.1355171 C5.33041135,15.281056 5.77123916,15.6275661 6.04415458,16.1104156 C6.31683873,16.5942088 6.38830557,17.1572581 6.24652831,17.695304 C5.9527973,18.8074856 4.8271368,19.467954 3.7366315,19.1686203 Z M10.3987747,36.498604 C9.60107525,37.3131031 8.30195155,37.3131031 7.50402085,36.498604 C6.70539629,35.6848126 6.70539629,34.3598657 7.50402085,33.5463102 C7.90252363,33.1389427 8.42753891,32.9353769 8.95139776,32.9353769 C9.4754879,32.9353769 10.0002719,33.1389427 10.3987747,33.5463102 C11.1973992,34.3598657 11.1973992,35.6848126 10.3987747,36.498604 Z M36.0172073,33.5463102 C36.8158318,34.3598657 36.8158318,35.6848126 36.0172073,36.498604 C35.2192766,37.3131031 33.9201529,37.3131031 33.1215283,36.498604 C32.3238289,35.6848126 32.3238289,34.3598657 33.1215283,33.5463102 C33.5209562,33.1389427 34.0448151,32.9353769 34.5698303,32.9353769 C35.0936892,32.9353769 35.6177793,33.1389427 36.0172073,33.5463102 Z"/>
      <path stroke="#D74B4B" stroke-width="2.3" d="M29.5348266,21.9586276 C29.5348266,26.3141528 26.0534099,29.8654554 21.7606141,29.8654554 C17.4676928,29.8654554 13.9854764,26.3140217 13.9854764,21.9586276 C13.9854764,17.6033645 17.4675675,14.0527433 21.7606141,14.0527433 C26.0535353,14.0527433 29.5348266,17.6032335 29.5348266,21.9586276 Z"/>
    </g>
  </g>
</svg>
