<svg xmlns="http://www.w3.org/2000/svg" width="80" height="80" viewBox="0 0 80 80" xmlns:xlink="http://www.w3.org/1999/xlink">
  <defs>
    <polygon id="a" points=".009 79.999 .009 0 79.999 0 79.999 40 79.999 79.999"/>
    <path id="c" d="M39.9995312,0 C62.0907812,0 79.9992187,17.9084375 79.9992187,39.9995312 C79.9992187,62.0907812 62.0907812,79.9992187 39.9995312,79.9992187 C17.9084375,79.9992187 0,62.0907812 0,39.9995312 C0,17.9084375 17.9084375,0 39.9995312,0"/>
  </defs>
  <g fill="none" fill-rule="evenodd">
    <mask id="b" fill="white">
      <use xlink:href="#a"/>
    </mask>
    <g mask="url(#b)">
      <use fill="#FFFFFF" xlink:href="#c"/>
      <path stroke="#000000" stroke-opacity=".1" d="M39.9995312,0.5 C18.1845799,0.5 0.5,18.1845799 0.5,39.9995312 C0.5,61.814615 18.184556,79.4992187 39.9995312,79.4992187 C61.8146389,79.4992187 79.4992187,61.8146389 79.4992187,39.9995312 C79.4992187,18.184556 61.814615,0.5 39.9995312,0.5 Z"/>
    </g>
    <g transform="translate(20 20)">
      <path fill="#313131" d="M37.9487206,15.8037598 L35.1415144,15.3273107 C34.8490862,14.3832898 34.4728982,13.4726893 34.013577,12.6037598 L35.6678851,10.289295 C36.3695039,9.30328982 36.2609922,7.95822454 35.4006266,7.10600522 L32.9108094,4.61618799 C32.4429243,4.14830287 31.8244386,3.8891906 31.164282,3.8891906 C30.6465796,3.8891906 30.1534204,4.04793734 29.7356658,4.34903394 L27.4130548,6.0032376 C26.510705,5.52678851 25.5666841,5.13430809 24.5891384,4.84177546 L24.1212533,2.06809399 C23.9205222,0.87310705 22.892846,0.00417754569 21.681671,0.00417754569 L18.1641775,0.00417754569 C16.9524804,0.00417754569 15.9248042,0.87310705 15.7241775,2.06809399 L15.2398956,4.90872063 C14.3040209,5.20125326 13.3930026,5.58548303 12.5244909,6.05347258 L10.2268407,4.39874674 C9.80908616,4.09806789 9.30767624,3.93942559 8.78955614,3.93942559 C8.12950392,3.93942559 7.50287206,4.19843342 7.04344648,4.66642298 L4.54516971,7.15613577 C3.69284595,8.00845953 3.57577023,9.3535248 4.27791123,10.33953 L5.9489295,12.6873107 C5.4891906,13.5644909 5.12156658,14.4750914 4.83759791,15.41953 L2.06391645,15.8869974 C0.868929504,16.0877285 0,17.1154047 0,18.3269974 L0,21.8444909 C0,23.0557702 0.868929504,24.0834465 2.06391645,24.2840731 L4.90454308,24.7687728 C5.19707572,25.7042298 5.58130548,26.615248 6.04929504,27.4841775 L4.40313316,29.7732637 C3.70140992,30.7592689 3.80992167,32.1043342 4.67039164,32.956658 L7.16020888,35.4463708 C7.62809399,35.9143603 8.24657963,36.1733681 8.90663185,36.1733681 C9.4243342,36.1733681 9.91759791,36.0147258 10.3353525,35.714047 L12.6831332,34.0430287 C13.526893,34.4856397 14.4125326,34.8451175 15.3231332,35.1289817 L15.7910183,37.936188 C15.9917493,39.1311749 17.0194256,40.0001044 18.230705,40.0001044 L21.756658,40.0001044 C22.9683551,40.0001044 23.9960313,39.1311749 24.1963446,37.936188 L24.672376,35.1289817 C25.6168146,34.8365535 26.5274151,34.4607833 27.3963446,34.0010444 L29.710705,35.655248 C30.1284595,35.9559269 30.6298695,36.1150914 31.1475718,36.1150914 C31.8077285,36.1150914 32.4261097,35.8559791 32.8940992,35.388094 L35.3839164,32.8982768 C36.2361358,32.0460574 36.3527937,30.7009922 35.6510705,29.7148825 L33.9968668,27.3919582 C34.4566057,26.5148825 34.8409399,25.604282 35.1248042,24.6684073 L37.9320104,24.2005222 C39.1269974,24.0002089 39.9959269,22.9725326 39.9959269,21.7608355 L39.9959269,18.2434465 C40.0126371,17.0317493 39.1437076,16.0040731 37.9487206,15.8037598 Z M37.756658,21.7608355 C37.756658,21.8693473 37.6815666,21.9611488 37.5730548,21.977859 L34.0637076,22.5629243 C33.6210966,22.6380157 33.2698695,22.9639687 33.1613577,23.3902872 C32.8438642,24.6182768 32.3592689,25.7964491 31.7077807,26.8909661 C31.4820888,27.2753003 31.4989034,27.751436 31.7574935,28.1189556 L33.8214099,31.0265274 C33.8796867,31.1101828 33.8715405,31.2354047 33.7965535,31.3109138 L31.3067363,33.8007311 C31.2479373,33.8590078 31.1896606,33.867154 31.1475718,33.867154 C31.097859,33.867154 31.0557702,33.8504439 31.0223499,33.8255875 L28.123342,31.761671 C27.7639687,31.5030809 27.2792689,31.4862663 26.8950392,31.7119582 C25.8004178,32.3634465 24.6226632,32.8480418 23.3942559,33.1655352 C22.9597911,33.274047 22.6338381,33.6334204 22.566893,34.0678851 L21.9736815,37.5772324 C21.9569713,37.6857441 21.8651697,37.7608355 21.756658,37.7608355 L18.2392689,37.7608355 C18.1307572,37.7608355 18.0385379,37.6857441 18.0218277,37.5772324 L17.4371802,34.0678851 C17.361671,33.6252742 17.0361358,33.274047 16.6098172,33.1655352 C15.4153525,32.8562924 14.2620366,32.3801567 13.1841253,31.761671 C13.0087728,31.6617232 12.8084595,31.6115927 12.6162924,31.6115927 C12.390705,31.6115927 12.1564491,31.6784334 11.9643864,31.82047 L9.04010444,33.9006789 C8.99843342,33.925953 8.95686684,33.9426632 8.91477807,33.9426632 C8.8813577,33.9426632 8.81441253,33.9340992 8.75613577,33.875718 L6.26631854,31.3859008 C6.19122715,31.3109138 6.18266319,31.1938381 6.24146214,31.1020366 L8.29671018,28.2193211 C8.55582245,27.8518016 8.57211488,27.3671018 8.34694517,26.9827676 C7.69503916,25.8968146 7.19362924,24.7186423 6.87624021,23.490235 C6.75916449,23.0643342 6.40825065,22.7383812 5.9737859,22.6632898 L2.43958225,22.0615144 C2.3310705,22.0448042 2.25608355,21.9530026 2.25608355,21.8444909 L2.25608355,18.3269974 C2.25608355,18.2180679 2.3310705,18.1263708 2.43958225,18.1095561 L5.92365535,17.5250131 C6.36668407,17.4495039 6.72563969,17.1239687 6.83456919,16.6895039 C7.14339426,15.4610966 7.61994778,14.2747781 8.26328982,13.1801567 C8.48887728,12.7958225 8.46360313,12.3197911 8.2045953,11.9603133 L6.12438642,9.03603133 C6.06558747,8.95248042 6.07415144,8.82715405 6.14924282,8.7521671 L8.63906005,6.26234987 C8.69775457,6.20355091 8.75613577,6.1954047 8.79770235,6.1954047 C8.84793734,6.1954047 8.88992167,6.21211488 8.92334204,6.23707572 L11.8056397,8.29232376 C12.1732637,8.55143603 12.657859,8.56814621 13.0421932,8.34255875 C14.128564,7.6910705 15.306423,7.18966057 16.5347258,6.87227154 C16.9606266,6.75519582 17.2866841,6.40428198 17.361671,5.96981723 L17.9634465,2.43561358 C17.9801567,2.32668407 18.0719582,2.25169713 18.18047,2.25169713 L21.6983812,2.25169713 C21.806893,2.25169713 21.8986945,2.32668407 21.9154047,2.43561358 L22.5003655,5.91968668 C22.5754569,6.36229765 22.9014099,6.72167102 23.3358747,6.83018277 C24.597389,7.1475718 25.8004178,7.64083551 26.9203133,8.30088773 C27.3045431,8.52657963 27.7806789,8.50976501 28.1483029,8.25075718 L31.0309138,6.17869452 C31.0725849,6.15342037 31.1145692,6.13671018 31.1561358,6.13671018 C31.1896606,6.13671018 31.2565013,6.14527415 31.3148825,6.20355091 L33.8046997,8.69336815 C33.8796867,8.76887728 33.8882507,8.88553525 33.8299739,8.97775457 L31.7660574,11.8767624 C31.5070496,12.2361358 31.4903394,12.7208355 31.7159269,13.1050653 C32.3678329,14.1996867 32.8521149,15.3774413 33.1699217,16.6058486 C33.2784334,17.0403133 33.637389,17.3658486 34.0718538,17.4327937 L37.581201,18.0260052 C37.6897128,18.0427154 37.7652219,18.1349347 37.7652219,18.2434465 L37.7652219,21.7608355 L37.756658,21.7608355 Z"/>
      <path fill="#D74B4B" d="M20.0020888,11.3672063 C15.2398956,11.3672063 11.3711749,15.2355091 11.3711749,19.9980157 C11.3711749,24.7602089 15.2398956,28.6285117 20.0020888,28.6285117 C24.7645953,28.6285117 28.6328982,24.7602089 28.6328982,19.9980157 C28.6328982,15.2355091 24.7645953,11.3672063 20.0020888,11.3672063 Z M20.0020888,26.372846 C16.4845953,26.372846 13.627154,23.5155091 13.627154,19.9980157 C13.627154,16.4806266 16.4845953,13.6227676 20.0020888,13.6227676 C23.5194778,13.6227676 26.3769191,16.4806266 26.3769191,19.9980157 C26.3769191,23.5155091 23.5194778,26.372846 20.0020888,26.372846 Z"/>
    </g>
  </g>
</svg>
